<svg width="22" height="22" viewBox="0 0 22 22" fill="none" xmlns="http://www.w3.org/2000/svg">
<path fill-rule="evenodd" clip-rule="evenodd" d="M15.2929 1.2927C16.788 -0.202387 19.2121 -0.202385 20.7072 1.29271C22.2023 2.7878 22.2023 5.21183 20.7072 6.70692L9.39058 18.0235C9.1572 18.257 8.98059 18.4337 8.78113 18.5885C8.60481 18.7253 8.41735 18.8471 8.2207 18.9527C7.99825 19.0721 7.76513 19.1617 7.45696 19.2801L7.33177 19.3283C7.30046 19.3404 7.26937 19.3523 7.23883 19.3641L1.85901 21.4332C1.49016 21.5751 1.07236 21.4864 0.792922 21.207C0.601891 21.016 0.500017 20.7603 0.5 20.4998C0.499985 20.3792 0.521793 20.2576 0.566683 20.1408L2.7197 14.543C2.83815 14.2348 2.92775 14.0016 3.04718 13.7791C3.15273 13.5825 3.27456 13.395 3.41139 13.2187C3.56618 13.0192 3.74283 12.8427 3.97635 12.6093L15.2929 1.2927ZM4.38099 15.7951L3.24108 18.7588L6.20481 17.6189L4.38099 15.7951Z" fill="#035C99"/>
<path d="M12 19H20C20.5523 19 21 19.4477 21 20C21 20.5523 20.5523 21 20 21H12C11.4477 21 11 20.5523 11 20C11 19.4477 11.4477 19 12 19Z" fill="#035C99"/>
</svg>
