<svg width="24" height="25" viewBox="0 0 24 25" fill="none" xmlns="http://www.w3.org/2000/svg">
<path fill-rule="evenodd" clip-rule="evenodd" d="M9.55773 1.14502C9.44753 1.14499 9.35166 1.14497 9.26018 1.15051C8.10334 1.22057 7.09033 1.9507 6.65804 3.02602C6.62385 3.11106 6.59355 3.20203 6.55873 3.30658L6.55133 3.32879C6.50494 3.46796 6.49488 3.49675 6.48633 3.51802C6.34223 3.87646 6.00456 4.11984 5.61895 4.14319C5.59634 4.14456 5.56241 4.14502 5.4056 4.14502L5.34974 4.14501C5.03489 4.14495 4.80354 4.1449 4.60563 4.16451C2.70837 4.35249 1.20748 5.85338 1.0195 7.75063C0.9999 7.9485 0.999945 8.17055 1.00001 8.47037L1.00001 16.3863C1 17.1913 0.99999 17.8556 1.04421 18.3968C1.09013 18.9589 1.1887 19.4756 1.43599 19.961C1.81948 20.7136 2.4314 21.3256 3.18405 21.709C3.66939 21.9563 4.18609 22.0549 4.74819 22.1008C5.28938 22.145 5.95373 22.145 6.75869 22.145H17.2413C18.0463 22.145 18.7106 22.145 19.2518 22.1008C19.8139 22.0549 20.3306 21.9563 20.816 21.709C21.5686 21.3256 22.1805 20.7136 22.564 19.961C22.8113 19.4756 22.9099 18.9589 22.9558 18.3968C23 17.8557 23 17.1913 23 16.3863L23 8.47036C23.0001 8.17056 23.0001 7.94849 22.9805 7.75063C22.7925 5.85338 21.2917 4.35249 19.3944 4.16451C19.1965 4.1449 18.9651 4.14495 18.6503 4.14501L18.5944 4.14502C18.4376 4.14502 18.4037 4.14456 18.3811 4.14319C17.9955 4.11984 17.6578 3.87646 17.5137 3.51802C17.5051 3.49675 17.4951 3.46796 17.4487 3.32879L17.4413 3.30657C17.4065 3.20205 17.3762 3.11104 17.342 3.02602C16.9097 1.9507 15.8967 1.22057 14.7399 1.15051C14.6484 1.14497 14.5525 1.14499 14.4423 1.14502H9.55773ZM16 12.645C16 14.8542 14.2091 16.645 12 16.645C9.79086 16.645 8 14.8542 8 12.645C8 10.4359 9.79086 8.64501 12 8.64501C14.2091 8.64501 16 10.4359 16 12.645Z" fill="#98A2B3"/>
</svg>
