<svg width="14" height="16" viewBox="0 0 14 16" fill="none" xmlns="http://www.w3.org/2000/svg">
<path fill-rule="evenodd" clip-rule="evenodd" d="M9.66683 0.666504C10.035 0.666504 10.3335 0.964981 10.3335 1.33317V2.00092C10.6505 2.0031 10.9275 2.00965 11.168 2.0293C11.5428 2.05992 11.8872 2.12563 12.2108 2.29049C12.7126 2.54615 13.1205 2.9541 13.3762 3.45586C13.541 3.77942 13.6067 4.12389 13.6374 4.49862C13.6668 4.85941 13.6668 5.30232 13.6668 5.83896V11.4941C13.6668 12.0307 13.6668 12.4736 13.6374 12.8344C13.6067 13.2091 13.541 13.5536 13.3762 13.8771C13.1205 14.3789 12.7126 14.7869 12.2108 15.0425C11.8872 15.2074 11.5428 15.2731 11.168 15.3037C10.8073 15.3332 10.3644 15.3332 9.82771 15.3332H4.17261C3.63597 15.3332 3.19307 15.3332 2.83228 15.3037C2.45755 15.2731 2.11308 15.2074 1.78952 15.0425C1.28776 14.7869 0.879809 14.3789 0.624146 13.8771C0.459286 13.5536 0.393576 13.2091 0.362959 12.8344C0.333481 12.4736 0.333488 12.0307 0.333496 11.494V5.83897C0.333488 5.30233 0.333481 4.85941 0.362959 4.49862C0.393576 4.12389 0.459286 3.77942 0.624146 3.45586C0.879809 2.9541 1.28776 2.54615 1.78952 2.29049C2.11308 2.12563 2.45755 2.05992 2.83228 2.0293C3.07282 2.00965 3.34985 2.0031 3.66683 2.00092V1.33317C3.66683 0.964981 3.96531 0.666504 4.3335 0.666504C4.70169 0.666504 5.00016 0.964981 5.00016 1.33317V1.99984H9.00016V1.33317C9.00016 0.964981 9.29864 0.666504 9.66683 0.666504ZM3.66683 3.33435V3.99984C3.66683 4.36803 3.96531 4.6665 4.3335 4.6665C4.70169 4.6665 5.00016 4.36803 5.00016 3.99984V3.33317H9.00016V3.99984C9.00016 4.36803 9.29864 4.6665 9.66683 4.6665C10.035 4.6665 10.3335 4.36803 10.3335 3.99984V3.33435C10.6305 3.33643 10.8637 3.34221 11.0595 3.35821C11.3517 3.38209 11.5012 3.42537 11.6055 3.4785C11.8564 3.60633 12.0603 3.8103 12.1882 4.06118C12.2413 4.16545 12.2846 4.31492 12.3085 4.6072C12.333 4.90726 12.3335 5.29545 12.3335 5.8665V5.99984H1.66683V5.8665C1.66683 5.29545 1.66735 4.90726 1.69186 4.6072C1.71574 4.31492 1.75903 4.16545 1.81215 4.06118C1.93999 3.8103 2.14396 3.60633 2.39484 3.4785C2.49911 3.42537 2.64858 3.38209 2.94086 3.35821C3.13658 3.34221 3.36981 3.33643 3.66683 3.33435Z" fill="#98A2B3"/>
</svg>
