<svg width="72" height="64" viewBox="0 0 72 64" fill="none" xmlns="http://www.w3.org/2000/svg">
<path d="M58.6858 51.6859L35.7221 63.8142L12.793 51.6859V33.3711H58.6858V51.6859Z" fill="#5BBCFF"/>
<path d="M35.7219 63.9997C35.6916 63.9998 35.6617 63.9923 35.6349 63.978L12.7065 51.8496C12.6767 51.8339 12.6518 51.8104 12.6343 51.7815C12.6168 51.7527 12.6075 51.7197 12.6074 51.6859V33.3706C12.6074 33.3213 12.627 33.2739 12.6619 33.2391C12.6968 33.2042 12.7441 33.1846 12.7934 33.1846H58.6857C58.735 33.1846 58.7824 33.2042 58.8172 33.2391C58.8521 33.2739 58.8717 33.3213 58.8717 33.3706V51.6854C58.8716 51.7191 58.8623 51.7521 58.8449 51.7809C58.8274 51.8098 58.8024 51.8333 58.7726 51.849L35.8088 63.9775C35.7821 63.9919 35.7523 63.9996 35.7219 63.9997ZM12.9789 51.5736L35.7219 63.6034L58.4997 51.5733V33.5566H12.9789V51.5736Z" fill="#035C99"/>
<path d="M58.6854 29.4411L35.7217 17.3127L46.0407 12.3389L69.0045 24.4674L58.6854 29.4411Z" fill="#5BBCFF"/>
<path d="M58.6859 29.6268C58.6556 29.6269 58.6258 29.6195 58.599 29.6054L35.6352 17.4769C35.6048 17.4608 35.5794 17.4366 35.5619 17.407C35.5445 17.3773 35.5355 17.3434 35.5362 17.309C35.5368 17.2746 35.547 17.241 35.5655 17.212C35.5841 17.183 35.6103 17.1597 35.6413 17.1448L45.9603 12.1709C45.9866 12.1582 46.0154 12.1518 46.0446 12.1524C46.0737 12.1529 46.1023 12.1603 46.1281 12.174L69.0918 24.3025C69.1222 24.3186 69.1476 24.3428 69.1651 24.3724C69.1826 24.4021 69.1915 24.436 69.1909 24.4704C69.1903 24.5048 69.1801 24.5384 69.1615 24.5673C69.143 24.5963 69.1167 24.6196 69.0857 24.6345L58.7667 29.6084C58.7415 29.6206 58.7139 29.6269 58.6859 29.6268ZM36.1348 17.3198L58.6897 29.2322L68.5922 24.4592L46.0373 12.5471L36.1348 17.3198Z" fill="#035C99"/>
<path d="M12.7927 29.4411L35.7564 17.3127L25.4374 12.3389L2.47363 24.4674L12.7927 29.4411Z" fill="#5BBCFF"/>
<path d="M12.7925 29.6268C12.7646 29.6269 12.7369 29.6205 12.7117 29.6084L2.39329 24.6345C2.36229 24.6196 2.33605 24.5963 2.31748 24.5673C2.29891 24.5384 2.28875 24.5048 2.28812 24.4704C2.28749 24.436 2.29641 24.4021 2.3139 24.3724C2.33139 24.3428 2.35676 24.3186 2.38718 24.3025L25.351 12.174C25.3767 12.1603 25.4053 12.1529 25.4344 12.1524C25.4636 12.1518 25.4924 12.1582 25.5187 12.1709L35.8377 17.1448C35.8687 17.1597 35.8949 17.183 35.9135 17.212C35.9321 17.241 35.9422 17.2746 35.9428 17.309C35.9435 17.3434 35.9346 17.3773 35.9171 17.407C35.8996 17.4366 35.8742 17.4608 35.8438 17.4769L12.88 29.6054C12.8531 29.6196 12.823 29.627 12.7925 29.6268ZM2.88616 24.4595L12.7887 29.2325L35.3436 17.3201L25.4411 12.5471L2.88616 24.4595Z" fill="#035C99"/>
<path d="M12.7925 29.4404L35.7563 41.5689L23.9491 48.0308L0.985352 35.9025L12.7925 29.4404Z" fill="#5BBCFF"/>
<path d="M23.9493 48.2172C23.9191 48.2173 23.8892 48.2099 23.8624 48.1957L0.898671 36.0672C0.869023 36.0514 0.84418 36.028 0.826776 35.9993C0.809372 35.9706 0.800054 35.9377 0.79981 35.9042C0.799566 35.8706 0.808404 35.8376 0.82539 35.8087C0.842375 35.7797 0.866873 35.7559 0.89629 35.7398L12.7035 29.2777C12.7305 29.263 12.7607 29.2551 12.7914 29.2549C12.8222 29.2547 12.8525 29.2621 12.8797 29.2766L35.8435 41.405C35.8731 41.4208 35.8979 41.4442 35.9153 41.4729C35.9328 41.5016 35.9421 41.5345 35.9423 41.568C35.9426 41.6016 35.9337 41.6346 35.9167 41.6635C35.8997 41.6925 35.8753 41.7163 35.8458 41.7324L24.0386 48.1945C24.0113 48.2094 23.9805 48.2172 23.9493 48.2172ZM1.37845 35.8999L23.9477 47.8201L35.3638 41.5722L12.7944 29.652L1.37845 35.8999Z" fill="#035C99"/>
<path d="M58.6854 29.4404L35.7217 41.5689L47.5289 48.0308L70.4926 35.9025L58.6854 29.4404Z" fill="#5BBCFF"/>
<path d="M47.5291 48.2172C47.4979 48.2172 47.4672 48.2094 47.4398 48.1945L35.6326 41.7324C35.6032 41.7163 35.5787 41.6925 35.5617 41.6635C35.5447 41.6346 35.5359 41.6016 35.5361 41.568C35.5364 41.5345 35.5457 41.5016 35.5631 41.4729C35.5805 41.4442 35.6053 41.4208 35.635 41.405L58.5988 29.2766C58.6259 29.2621 58.6563 29.2547 58.687 29.2549C58.7178 29.2551 58.748 29.263 58.775 29.2777L70.5822 35.7398C70.6116 35.7559 70.6361 35.7797 70.6531 35.8087C70.67 35.8376 70.6789 35.8706 70.6786 35.9042C70.6784 35.9377 70.6691 35.9706 70.6517 35.9993C70.6343 36.028 70.6094 36.0514 70.5798 36.0672L47.616 48.1957C47.5892 48.2099 47.5594 48.2173 47.5291 48.2172ZM36.1149 41.5722L47.5309 47.8201L70.1003 35.8999L58.6842 29.652L36.1149 41.5722Z" fill="#035C99"/>
<path d="M35.7567 17.3125L12.793 29.4408L35.7221 41.5693L58.6858 29.4408L35.7567 17.3125Z" fill="#177CC2"/>
<path d="M35.9082 41.5693H35.5361V63.8142H35.9082V41.5693Z" fill="#035C99"/>
<path d="M22.8556 28.3391C22.8248 28.3392 22.7948 28.3295 22.7698 28.3116C22.7376 28.2888 22.7157 28.2541 22.7091 28.2152C22.7024 28.1763 22.7115 28.1364 22.7343 28.1042C22.7619 28.0653 25.4514 24.1771 22.4489 20.6323C21.9175 20.0016 21.2546 19.4948 20.5066 19.1473C19.7587 18.7999 18.9438 18.6202 18.1191 18.6209H18.0786C18.3638 19.6114 18.3129 20.4921 17.9091 21.1677C17.7371 21.473 17.4832 21.7242 17.1762 21.893C16.8691 22.0618 16.5209 22.1415 16.171 22.1231C15.8813 22.0994 15.6048 21.9917 15.3754 21.8132C15.146 21.6347 14.9736 21.3932 14.8794 21.1183C14.5492 20.257 14.8943 19.4218 15.8038 18.8835C16.38 18.5658 17.0203 18.3816 17.6773 18.3447C17.4636 17.778 17.1856 17.2377 16.849 16.7343C15.7649 15.0786 13.789 13.9324 11.4279 13.5897C9.42694 13.2994 7.5093 13.6413 6.54185 14.4607C6.51171 14.4862 6.47268 14.4987 6.43335 14.4954C6.39401 14.4921 6.35759 14.4734 6.33209 14.4432C6.30659 14.4131 6.29411 14.3741 6.29739 14.3347C6.30067 14.2954 6.31944 14.259 6.34958 14.2335C7.37908 13.3616 9.38914 12.993 11.4706 13.2959C13.9161 13.651 15.9671 14.845 17.0981 16.572C17.4648 17.1197 17.763 17.7102 17.9862 18.3304C18.8759 18.309 19.759 18.4875 20.5705 18.8527C21.382 19.2179 22.1013 19.7605 22.6753 20.4406C25.8291 24.1638 23.0052 28.2363 22.9763 28.2771C22.9626 28.2963 22.9444 28.3119 22.9235 28.3227C22.9025 28.3335 22.8792 28.3391 22.8556 28.3391ZM17.7739 18.6317C17.1369 18.6589 16.5148 18.8328 15.9561 19.1398C15.1709 19.6044 14.8801 20.2869 15.158 21.0119C15.2333 21.2341 15.3717 21.4294 15.5563 21.5742C15.7408 21.7189 15.9636 21.8067 16.1973 21.8268C16.4916 21.84 16.7837 21.7711 17.041 21.6277C17.2983 21.4844 17.5107 21.2723 17.6544 21.0152C18.0249 20.3946 18.0589 19.5697 17.7734 18.6317H17.7739Z" fill="#33A0EB"/>
<path d="M3.97377 16.8607C3.72088 16.9367 3.44832 16.9109 3.21413 16.7889C2.97994 16.6669 2.80262 16.4584 2.71992 16.2076C2.63722 15.9568 2.65568 15.6837 2.77137 15.4463C2.88706 15.2089 3.09083 15.0261 3.33931 14.9367C3.58778 14.8474 3.86133 14.8585 4.10169 14.9679C4.34206 15.0772 4.53027 15.276 4.62623 15.522C4.7222 15.768 4.71834 16.0417 4.61549 16.2849C4.51264 16.5281 4.31891 16.7216 4.07556 16.8241C4.04233 16.8381 4.00834 16.8503 3.97377 16.8607ZM3.47896 15.207C3.45485 15.2143 3.43116 15.2228 3.40798 15.2326C3.23675 15.3048 3.10047 15.441 3.02817 15.6122C2.95588 15.7834 2.95327 15.976 3.02091 16.1491C3.08855 16.3222 3.22108 16.462 3.3903 16.5388C3.55951 16.6156 3.75202 16.6233 3.92682 16.5603C4.10163 16.4973 4.24492 16.3685 4.32618 16.2014C4.40743 16.0342 4.42023 15.842 4.36185 15.6656C4.30346 15.4892 4.17851 15.3425 4.0136 15.2569C3.84869 15.1712 3.65686 15.1533 3.47896 15.207Z" fill="#33A0EB"/>
<path d="M3.97238 14.5285C3.73316 14.5999 3.47598 14.5804 3.25028 14.4737C3.02458 14.367 2.8463 14.1806 2.74971 13.9504C2.67227 13.7658 2.6513 13.5624 2.68946 13.3659C2.72761 13.1694 2.82317 12.9887 2.96406 12.8465C3.10495 12.7043 3.28484 12.6071 3.48097 12.5672C3.6771 12.5273 3.88066 12.5464 4.06592 12.6222C4.25118 12.698 4.40981 12.827 4.52175 12.9929C4.63368 13.1588 4.6939 13.3542 4.69478 13.5544C4.69567 13.7545 4.63718 13.9504 4.52671 14.1173C4.41624 14.2842 4.25876 14.4146 4.07417 14.492C4.0409 14.506 4.00692 14.5181 3.97238 14.5285ZM3.47816 12.8747C3.45377 12.882 3.42978 12.8906 3.40629 12.9005C3.23171 12.9738 3.09339 13.1134 3.02172 13.2887C2.95006 13.464 2.95093 13.6605 3.02413 13.8352C3.07751 13.9625 3.16664 14.0716 3.28073 14.1493C3.39482 14.227 3.52898 14.27 3.66699 14.2731C3.805 14.2761 3.94094 14.2391 4.05837 14.1666C4.1758 14.094 4.26969 13.989 4.32868 13.8642C4.38767 13.7394 4.40923 13.6001 4.39076 13.4633C4.37229 13.3265 4.31457 13.198 4.2246 13.0933C4.13462 12.9886 4.01624 12.9123 3.88377 12.8734C3.7513 12.8346 3.61042 12.8352 3.47816 12.8747Z" fill="#33A0EB"/>
<path d="M3.68265 15.5811C4.41347 15.5811 5.00592 15.1854 5.00592 14.6973C5.00592 14.2092 4.41347 13.8135 3.68265 13.8135C2.95182 13.8135 2.35938 14.2092 2.35938 14.6973C2.35938 15.1854 2.95182 15.5811 3.68265 15.5811Z" fill="#035C99"/>
<path d="M4.26861 15.6459C4.07889 15.702 3.88205 15.7302 3.68421 15.7298C2.85858 15.7298 2.21094 15.2774 2.21094 14.6984C2.21094 14.1193 2.85665 13.6653 3.68198 13.6644C4.04181 13.6575 4.39583 13.7558 4.70063 13.9472C4.83752 14.0185 4.95225 14.1259 5.03236 14.2579C5.11247 14.3898 5.1549 14.5412 5.15504 14.6955C5.15518 14.8499 5.11302 15.0013 5.03314 15.1334C4.95327 15.2655 4.83873 15.3731 4.70197 15.4447C4.56827 15.5328 4.42223 15.6006 4.26861 15.6459ZM3.18791 14.0329C2.79028 14.1519 2.50842 14.4089 2.50857 14.6976C2.50857 15.096 3.04684 15.4322 3.68421 15.4316C3.9853 15.4379 4.28171 15.3564 4.53723 15.1971C4.63306 15.1529 4.71422 15.0822 4.77108 14.9933C4.82794 14.9045 4.85811 14.8011 4.85802 14.6956C4.85792 14.5901 4.82757 14.4869 4.77055 14.3981C4.71353 14.3093 4.63225 14.2388 4.53633 14.1948C4.28063 14.0357 3.98408 13.9548 3.68302 13.9617C3.51541 13.9613 3.34862 13.9853 3.18791 14.0329Z" fill="#33A0EB"/>
<path d="M4.00712 15.5535L3.97587 13.8346L3.54847 13.8174L3.51855 15.5736L4.00712 15.5535Z" fill="#33A0EB"/>
<path d="M1.92763 15.0711C2.00308 15.0711 2.06424 15.0099 2.06424 14.9345C2.06424 14.859 2.00308 14.7979 1.92763 14.7979C1.85218 14.7979 1.79102 14.859 1.79102 14.9345C1.79102 15.0099 1.85218 15.0711 1.92763 15.0711Z" fill="#33A0EB"/>
<path d="M2.03407 14.3396C2.10952 14.3396 2.17069 14.2785 2.17069 14.203C2.17069 14.1276 2.10952 14.0664 2.03407 14.0664C1.95862 14.0664 1.89746 14.1276 1.89746 14.203C1.89746 14.2785 1.95862 14.3396 2.03407 14.3396Z" fill="#33A0EB"/>
<path d="M46.2387 19.7575C46.2068 19.7575 46.1758 19.7473 46.1502 19.7284C46.1246 19.7094 46.1057 19.6828 46.0964 19.6523C45.6028 17.809 45.4711 15.8876 45.7086 13.9942C46.0933 11.2262 47.6198 7.59347 52.7074 6.00278C53.4232 5.77262 54.1575 5.60429 54.9021 5.49963C55.1419 4.0024 56.0538 2.37822 58.0933 1.25764C62.9391 -1.40497 66.2123 0.983967 66.2447 1.00837C66.2763 1.03205 66.2972 1.06731 66.3027 1.10638C66.3083 1.14545 66.2982 1.18514 66.2745 1.21671C66.2508 1.24829 66.2155 1.26916 66.1765 1.27475C66.1374 1.28033 66.0977 1.27016 66.0661 1.24648C66.0352 1.22326 62.9071 -1.04782 58.2368 1.51866C56.3311 2.56588 55.4587 4.06892 55.2106 5.46422C57.4546 5.24322 58.5292 5.99177 59.0115 6.55712C59.3099 6.89709 59.5017 7.31736 59.5629 7.76555C59.6242 8.21375 59.5522 8.67005 59.3559 9.07761C59.2008 9.40703 58.9494 9.68166 58.6349 9.86523C58.3205 10.0488 57.9578 10.1327 57.5946 10.1058C56.3415 10.0323 55.3044 8.97806 54.9529 7.41995C54.8369 6.89251 54.8061 6.34992 54.8615 5.81274C54.1611 5.91336 53.4704 6.0722 52.7964 6.28761C48.8312 7.5274 46.5461 10.1345 46.0032 14.036C45.7707 15.8864 45.8989 17.7644 46.3809 19.566C46.3877 19.5883 46.3893 19.6118 46.3853 19.6347C46.3814 19.6577 46.3721 19.6794 46.3583 19.6981C46.3445 19.7168 46.3264 19.732 46.3057 19.7425C46.2849 19.753 46.2619 19.7584 46.2387 19.7584V19.7575ZM55.1649 5.77554C55.1029 6.30249 55.1294 6.83609 55.2432 7.35432C55.5648 8.77968 56.4946 9.74297 57.6121 9.8086C57.9166 9.83042 58.2207 9.75967 58.4843 9.60564C58.748 9.45162 58.9589 9.22149 59.0895 8.94546C59.2596 8.59006 59.3215 8.19246 59.2673 7.80218C59.2131 7.41189 59.0453 7.04618 58.7847 6.75058C58.0889 5.93403 56.819 5.60425 55.1649 5.77554Z" fill="#33A0EB"/>
<path d="M69.711 2.5124C69.5106 2.51198 69.3143 2.45489 69.145 2.34772C68.9756 2.24055 68.84 2.08767 68.7537 1.90672C68.6675 1.72577 68.6342 1.52413 68.6577 1.32507C68.6812 1.12602 68.7605 0.937654 68.8864 0.781727C69.0124 0.6258 69.1798 0.508664 69.3695 0.443839C69.5592 0.379015 69.7633 0.369143 69.9583 0.415364C70.1534 0.461585 70.3314 0.562014 70.4718 0.705061C70.6122 0.848108 70.7093 1.02794 70.7518 1.22381C70.7852 1.37907 70.7834 1.53983 70.7466 1.69431C70.7098 1.84879 70.6389 1.99308 70.5391 2.11662C70.4393 2.24016 70.3132 2.33982 70.1699 2.4083C70.0266 2.47678 69.8698 2.51235 69.711 2.5124ZM69.7132 0.684348C69.555 0.684344 69.4006 0.733434 69.2714 0.824852C69.1421 0.916269 69.0445 1.04551 68.9918 1.19477C68.9391 1.34403 68.934 1.50596 68.9772 1.65823C69.0204 1.8105 69.1098 1.94563 69.233 2.04498C69.3562 2.14433 69.5072 2.20302 69.6652 2.21296C69.8232 2.2229 69.9803 2.1836 70.115 2.10047C70.2497 2.01734 70.3553 1.89449 70.4173 1.74883C70.4792 1.60317 70.4945 1.44189 70.4609 1.2872C70.4246 1.11606 70.3304 0.962655 70.1943 0.852843C70.0581 0.74303 69.8882 0.683523 69.7132 0.684348Z" fill="#33A0EB"/>
<path d="M69.263 4.94121C68.9902 4.94119 68.7279 4.8366 68.5299 4.64898C68.3319 4.46135 68.2134 4.20497 68.1988 3.93261C68.1842 3.66025 68.2745 3.39264 68.4512 3.18487C68.6279 2.9771 68.8775 2.84499 69.1487 2.81573C69.4199 2.78646 69.692 2.86228 69.909 3.02756C70.1259 3.19285 70.2713 3.43502 70.3151 3.70424C70.3589 3.97345 70.2978 4.24921 70.1444 4.47475C69.991 4.70029 69.757 4.85845 69.4905 4.91666C69.4158 4.93297 69.3395 4.94121 69.263 4.94121ZM69.2667 3.11301C69.2117 3.11303 69.1568 3.11897 69.103 3.13072C68.9129 3.17247 68.7461 3.28549 68.6368 3.44652C68.5275 3.60756 68.484 3.80436 68.5154 3.99644C68.5468 4.18852 68.6506 4.36126 68.8055 4.47913C68.9604 4.597 69.1545 4.65102 69.348 4.63009C69.5415 4.60915 69.7196 4.51486 69.8457 4.36659C69.9718 4.21833 70.0363 4.02738 70.0259 3.83304C70.0154 3.63869 69.9309 3.45573 69.7897 3.32179C69.6485 3.18786 69.4614 3.11314 69.2667 3.11301Z" fill="#33A0EB"/>
<path d="M70.8613 2.94756C70.9551 2.43926 70.4142 1.91335 69.6532 1.77292C68.8922 1.63248 68.1992 1.93071 68.1054 2.43901C68.0116 2.94731 68.5525 3.47322 69.3135 3.61365C70.0746 3.75408 70.7676 3.45586 70.8613 2.94756Z" fill="#035C99"/>
<path d="M69.6877 3.79688C69.5529 3.79666 69.4184 3.78421 69.2859 3.75968C68.9116 3.69758 68.5636 3.52764 68.2845 3.27067C68.1623 3.16644 68.0684 3.03309 68.0114 2.88296C67.9544 2.73282 67.9362 2.57074 67.9584 2.4117C67.9945 2.25521 68.0693 2.11032 68.1762 1.99041C68.283 1.87051 68.4183 1.77946 68.5696 1.72566C68.9236 1.59196 69.3074 1.55759 69.6795 1.62626C70.0516 1.69493 70.3979 1.86402 70.6809 2.11526C70.803 2.21949 70.8969 2.35283 70.9539 2.50297C71.0109 2.6531 71.0291 2.81519 71.0069 2.97423C70.9709 3.13072 70.896 3.27561 70.7892 3.39551C70.6824 3.51542 70.547 3.60647 70.3957 3.66027C70.1713 3.75313 69.9305 3.7996 69.6877 3.79688ZM69.2766 1.88638C69.0746 1.88381 68.8741 1.92213 68.6872 1.99904C68.5814 2.03443 68.4862 2.09565 68.41 2.17713C68.3339 2.25862 68.2793 2.35781 68.2511 2.46572C68.2389 2.57657 68.2545 2.68871 68.2966 2.792C68.3386 2.89529 68.4058 2.98646 68.4919 3.05727C68.7326 3.26736 69.0254 3.40883 69.3396 3.46682C69.6538 3.52482 69.9779 3.49721 70.2777 3.38689C70.3835 3.3515 70.4787 3.29028 70.5549 3.2088C70.631 3.12731 70.6856 3.02812 70.7137 2.92021C70.726 2.80935 70.7105 2.69718 70.6684 2.59388C70.6264 2.49058 70.5592 2.39941 70.473 2.32866C70.236 2.11255 69.9413 1.97018 69.6247 1.91897C69.5101 1.89763 69.3938 1.88672 69.2772 1.88638H69.2766Z" fill="#33A0EB"/>
<path d="M69.312 1.73828L69.0127 3.53389L69.4542 3.63449L69.8245 1.81165L69.312 1.73828Z" fill="#33A0EB"/>
<path d="M71.1056 3.67016C71.1855 3.67016 71.2502 3.6054 71.2502 3.52551C71.2502 3.44562 71.1855 3.38086 71.1056 3.38086C71.0257 3.38086 70.9609 3.44562 70.9609 3.52551C70.9609 3.6054 71.0257 3.67016 71.1056 3.67016Z" fill="#33A0EB"/>
<path d="M71.3575 2.92992C71.4374 2.92992 71.5022 2.86516 71.5022 2.78527C71.5022 2.70539 71.4374 2.64062 71.3575 2.64062C71.2776 2.64062 71.2129 2.70539 71.2129 2.78527C71.2129 2.86516 71.2776 2.92992 71.3575 2.92992Z" fill="#33A0EB"/>
</svg>
