<svg width="20" height="18" viewBox="0 0 20 18" fill="none" xmlns="http://www.w3.org/2000/svg">
<path fill-rule="evenodd" clip-rule="evenodd" d="M2.97328 0.666506C2.98214 0.666507 2.991 0.666508 2.99987 0.666508L17.0264 0.666506C17.2368 0.666481 17.4416 0.666457 17.6151 0.680629C17.8056 0.696193 18.0303 0.732916 18.2565 0.848164C18.5701 1.00795 18.8251 1.26292 18.9849 1.57652C19.1001 1.80271 19.1369 2.02749 19.1524 2.21798C19.1666 2.39144 19.1666 2.59626 19.1665 2.80658L19.1665 3.391C19.1665 3.4062 19.1666 3.42183 19.1666 3.43783C19.1671 3.61143 19.1678 3.82997 19.1118 4.04297C19.0633 4.22755 18.9834 4.40242 18.8757 4.55997C18.7514 4.74177 18.5859 4.88441 18.4543 4.99772C18.4422 5.00817 18.4304 5.01837 18.4189 5.02833L13.0891 9.6475C12.9985 9.72602 12.9531 9.76561 12.9216 9.79586L12.9191 9.79821L12.9189 9.80159C12.9168 9.84527 12.9165 9.90545 12.9165 10.0253V14.3818C12.9165 14.3909 12.9166 14.4016 12.9168 14.4135C12.918 14.5281 12.9205 14.7659 12.8377 14.988C12.768 15.1748 12.6547 15.3421 12.5072 15.4762C12.3318 15.6356 12.11 15.7216 12.0032 15.763C11.992 15.7673 11.9821 15.7711 11.9736 15.7745L9.117 16.9172C8.98462 16.9702 8.83825 17.0288 8.70915 17.0673C8.57024 17.1088 8.34206 17.163 8.07888 17.1083C7.75636 17.0412 7.47334 16.8496 7.29133 16.5751C7.14281 16.351 7.10838 16.119 7.09528 15.9747C7.0831 15.8405 7.08315 15.6828 7.08319 15.5402L7.0832 10.0253C7.0832 9.90545 7.08297 9.84527 7.0808 9.80159L7.08063 9.79821L7.07818 9.79586C7.04659 9.76561 7.00127 9.72602 6.91067 9.6475L1.58085 5.02833C1.56936 5.01837 1.55752 5.00817 1.5454 4.99773C1.41388 4.88442 1.24831 4.74177 1.12402 4.55997C1.01631 4.40242 0.936454 4.22755 0.887943 4.04297C0.831963 3.82997 0.832601 3.61143 0.833107 3.43784C0.833154 3.42183 0.833199 3.40621 0.833199 3.391V2.83317C0.833199 2.82431 0.833198 2.81544 0.833197 2.80659C0.833172 2.59627 0.833148 2.39145 0.847321 2.21798C0.862884 2.02749 0.899607 1.80271 1.01486 1.57652C1.17464 1.26292 1.42961 1.00795 1.74322 0.848164C1.9694 0.732916 2.19418 0.696193 2.38467 0.680629C2.55814 0.666457 2.76297 0.666481 2.97328 0.666506Z" fill="white"/>
</svg>
