<svg width="24" height="25" viewBox="0 0 24 25" fill="none" xmlns="http://www.w3.org/2000/svg">
<path fill-rule="evenodd" clip-rule="evenodd" d="M13 2.04458C13 2.01828 13 2.00513 12.9989 1.98128C12.9753 1.4875 12.541 1.05348 12.0473 1.03012C12.0234 1.029 12.0156 1.029 12 1.029H12H8.75866H8.75862C7.95369 1.02899 7.28935 1.02898 6.74818 1.0732C6.18608 1.11913 5.66938 1.21769 5.18404 1.46498C4.43139 1.84847 3.81947 2.4604 3.43598 3.21304C3.18869 3.69838 3.09012 4.21508 3.0442 4.77718C2.99998 5.31837 2.99999 5.98273 3 6.78768V6.78769V17.2703V17.2703C2.99999 18.0753 2.99998 18.7396 3.0442 19.2808C3.09012 19.8429 3.18869 20.3596 3.43598 20.845C3.81947 21.5976 4.43139 22.2095 5.18404 22.593C5.66938 22.8403 6.18608 22.9389 6.74818 22.9848C7.28937 23.029 7.95372 23.029 8.75868 23.029H15.2413C16.0463 23.029 16.7106 23.029 17.2518 22.9848C17.8139 22.9389 18.3306 22.8403 18.816 22.593C19.5686 22.2095 20.1805 21.5976 20.564 20.845C20.8113 20.3596 20.9099 19.8429 20.9558 19.2808C21 18.7396 21 18.0753 21 17.2703V10.0289C21 10.0134 21 10.0056 20.9989 9.98182C20.9756 9.48799 20.5415 9.05372 20.0477 9.03015C20.0238 9.02901 20.0107 9.02901 19.9845 9.02901L15.5681 9.02902C15.3157 9.02905 15.0699 9.02908 14.8618 9.01207C14.6332 8.99339 14.3634 8.94933 14.092 8.81103C13.7157 8.61928 13.4097 8.31332 13.218 7.937C13.0797 7.66557 13.0356 7.39584 13.017 7.16724C12.9999 6.95909 13 6.7133 13 6.46091L13 2.04458ZM18.908 7.029C19.2016 7.029 19.3484 7.029 19.4686 6.95527C19.6385 6.85115 19.74 6.60584 19.6935 6.41214C19.6605 6.27498 19.5648 6.17933 19.3733 5.98804L16.041 2.65572C15.8497 2.46424 15.754 2.3685 15.6169 2.33553C15.4232 2.28897 15.1779 2.3905 15.0737 2.56034C15 2.68061 15 2.82742 15 3.12104L15 6.22897C15 6.50898 15 6.64899 15.0545 6.75594C15.1024 6.85002 15.1789 6.92651 15.273 6.97445C15.38 7.02895 15.52 7.02895 15.8 7.02895L18.908 7.029ZM8 9.029C7.44772 9.029 7 9.47672 7 10.029C7 10.5813 7.44772 11.029 8 11.029H10C10.5523 11.029 11 10.5813 11 10.029C11 9.47672 10.5523 9.029 10 9.029H8ZM7 14.029C7 13.4767 7.44772 13.029 8 13.029H16C16.5523 13.029 17 13.4767 17 14.029C17 14.5813 16.5523 15.029 16 15.029H8C7.44772 15.029 7 14.5813 7 14.029ZM7 18.029C7 17.4767 7.44772 17.029 8 17.029H16C16.5523 17.029 17 17.4767 17 18.029C17 18.5813 16.5523 19.029 16 19.029H8C7.44772 19.029 7 18.5813 7 18.029Z" fill="#98A2B3"/>
</svg>
