<svg width="176" height="224" viewBox="0 0 176 224" fill="none" xmlns="http://www.w3.org/2000/svg">
<g clip-path="url(#clip0_435_3733)">
<rect x="-8.90967" y="-7.03198" width="25.3408" height="25.3408" stroke="white" stroke-opacity="0.03" stroke-width="0.5"/>
<rect x="-8.90967" y="18.2708" width="25.3408" height="24.8025" stroke="white" stroke-opacity="0.03" stroke-width="0.5"/>
<rect x="-8.90967" y="43.0347" width="25.3408" height="24.8025" stroke="white" stroke-opacity="0.03" stroke-width="0.5"/>
<rect x="-8.90967" y="67.7988" width="25.3408" height="25.3408" stroke="white" stroke-opacity="0.03" stroke-width="0.5"/>
<rect x="-8.90967" y="92.5632" width="25.3408" height="25.3408" stroke="white" stroke-opacity="0.03" stroke-width="0.5"/>
<rect x="-8.90967" y="117.865" width="25.3408" height="24.8025" stroke="white" stroke-opacity="0.03" stroke-width="0.5"/>
<rect x="-8.90967" y="142.63" width="25.3408" height="24.8025" stroke="white" stroke-opacity="0.03" stroke-width="0.5"/>
<rect x="-8.86108" y="167.356" width="25.3889" height="24.3737" stroke="white" stroke-opacity="0.03" stroke-width="0.5"/>
<rect x="-8.90967" y="192.158" width="25.3408" height="25.3408" stroke="white" stroke-opacity="0.03" stroke-width="0.5"/>
<rect x="-8.90967" y="217.46" width="25.3408" height="24.8025" stroke="white" stroke-opacity="0.03" stroke-width="0.5"/>
<rect x="16.3933" y="-7.03198" width="25.8792" height="25.3408" stroke="white" stroke-opacity="0.03" stroke-width="0.5"/>
<rect x="16.3933" y="18.2708" width="25.8792" height="24.8025" stroke="white" stroke-opacity="0.03" stroke-width="0.5"/>
<rect x="16.3933" y="43.0347" width="25.8792" height="24.8025" stroke="white" stroke-opacity="0.03" stroke-width="0.5"/>
<rect x="16.3933" y="67.7988" width="25.8792" height="25.3408" stroke="white" stroke-opacity="0.03" stroke-width="0.5"/>
<rect x="16.3933" y="92.5632" width="25.8792" height="25.3408" stroke="white" stroke-opacity="0.03" stroke-width="0.5"/>
<rect x="16.3933" y="117.865" width="25.8792" height="24.8025" stroke="white" stroke-opacity="0.03" stroke-width="0.5"/>
<rect x="16.3933" y="142.63" width="25.8792" height="24.8025" stroke="white" stroke-opacity="0.03" stroke-width="0.5"/>
<rect x="16.2665" y="167.356" width="25.8966" height="24.3737" stroke="white" stroke-opacity="0.03" stroke-width="0.5"/>
<rect x="16.3933" y="192.158" width="25.8792" height="25.3408" stroke="white" stroke-opacity="0.03" stroke-width="0.5"/>
<rect x="16.3933" y="217.46" width="25.8792" height="24.8025" stroke="white" stroke-opacity="0.03" stroke-width="0.5"/>
<rect x="42.2338" y="-7.03198" width="25.3408" height="25.3408" stroke="white" stroke-opacity="0.03" stroke-width="0.5"/>
<rect x="42.2338" y="18.2708" width="25.3408" height="24.8025" stroke="white" stroke-opacity="0.03" stroke-width="0.5"/>
<rect x="42.2338" y="43.0347" width="25.3408" height="24.8025" stroke="white" stroke-opacity="0.03" stroke-width="0.5"/>
<rect x="42.2338" y="67.7988" width="25.3408" height="25.3408" stroke="white" stroke-opacity="0.03" stroke-width="0.5"/>
<rect x="42.2338" y="92.5632" width="25.3408" height="25.3408" stroke="white" stroke-opacity="0.03" stroke-width="0.5"/>
<rect x="42.2338" y="117.865" width="25.3408" height="24.8025" stroke="white" stroke-opacity="0.03" stroke-width="0.5"/>
<rect x="42.2338" y="142.63" width="25.3408" height="24.8025" stroke="white" stroke-opacity="0.03" stroke-width="0.5"/>
<rect x="42.1554" y="167.356" width="25.3889" height="24.3737" stroke="white" stroke-opacity="0.03" stroke-width="0.5"/>
<rect x="42.2338" y="192.158" width="25.3408" height="25.3408" stroke="white" stroke-opacity="0.03" stroke-width="0.5"/>
<rect x="42.2338" y="217.46" width="25.3408" height="24.8025" stroke="white" stroke-opacity="0.03" stroke-width="0.5"/>
<rect x="67.5366" y="-7.03198" width="25.3408" height="25.3408" stroke="white" stroke-opacity="0.03" stroke-width="0.5"/>
<rect x="67.5366" y="18.2708" width="25.3408" height="24.8025" stroke="white" stroke-opacity="0.03" stroke-width="0.5"/>
<rect x="67.5366" y="43.0347" width="25.3408" height="24.8025" stroke="white" stroke-opacity="0.03" stroke-width="0.5"/>
<rect x="67.5366" y="67.7988" width="25.3408" height="25.3408" stroke="white" stroke-opacity="0.03" stroke-width="0.5"/>
<rect x="67.5366" y="92.5632" width="25.3408" height="25.3408" stroke="white" stroke-opacity="0.03" stroke-width="0.5"/>
<rect x="67.5366" y="117.865" width="25.3408" height="24.8025" stroke="white" stroke-opacity="0.03" stroke-width="0.5"/>
<rect x="67.5366" y="142.63" width="25.3408" height="24.8025" stroke="white" stroke-opacity="0.03" stroke-width="0.5"/>
<rect x="67.5366" y="167.356" width="25.3889" height="24.3737" stroke="white" stroke-opacity="0.03" stroke-width="0.5"/>
<rect x="67.5366" y="192.158" width="25.3408" height="25.3408" stroke="white" stroke-opacity="0.03" stroke-width="0.5"/>
<rect x="67.5366" y="217.46" width="25.3408" height="24.8025" stroke="white" stroke-opacity="0.03" stroke-width="0.5"/>
<rect x="92.8396" y="-7.03198" width="25.3408" height="25.3408" stroke="white" stroke-opacity="0.03" stroke-width="0.5"/>
<rect x="92.8396" y="18.2708" width="25.3408" height="24.8025" stroke="white" stroke-opacity="0.03" stroke-width="0.5"/>
<rect x="92.8396" y="43.0347" width="25.3408" height="24.8025" stroke="white" stroke-opacity="0.03" stroke-width="0.5"/>
<rect x="92.8396" y="67.7988" width="25.3408" height="25.3408" stroke="white" stroke-opacity="0.03" stroke-width="0.5"/>
<rect x="92.8396" y="92.5632" width="25.3408" height="25.3408" stroke="white" stroke-opacity="0.03" stroke-width="0.5"/>
<rect x="92.8396" y="117.865" width="25.3408" height="24.8025" stroke="white" stroke-opacity="0.03" stroke-width="0.5"/>
<rect x="92.8396" y="142.63" width="25.3408" height="24.8025" stroke="white" stroke-opacity="0.03" stroke-width="0.5"/>
<rect x="92.918" y="167.356" width="25.3889" height="24.3737" stroke="white" stroke-opacity="0.03" stroke-width="0.5"/>
<rect x="92.8396" y="192.158" width="25.3408" height="25.3408" stroke="white" stroke-opacity="0.03" stroke-width="0.5"/>
<rect x="118.141" y="-7.03198" width="25.8792" height="25.3408" stroke="white" stroke-opacity="0.03" stroke-width="0.5"/>
<rect x="118.141" y="18.2708" width="25.8792" height="24.8025" stroke="white" stroke-opacity="0.03" stroke-width="0.5"/>
<rect x="118.141" y="43.0347" width="25.8792" height="24.8025" stroke="white" stroke-opacity="0.03" stroke-width="0.5"/>
<rect x="118.141" y="67.7988" width="25.8792" height="25.3408" stroke="white" stroke-opacity="0.03" stroke-width="0.5"/>
<rect x="118.141" y="92.5632" width="25.8792" height="25.3408" stroke="white" stroke-opacity="0.03" stroke-width="0.5"/>
<rect x="118.141" y="117.865" width="25.8792" height="24.8025" stroke="white" stroke-opacity="0.03" stroke-width="0.5"/>
<rect x="118.141" y="142.63" width="25.8792" height="24.8025" stroke="white" stroke-opacity="0.03" stroke-width="0.5"/>
<rect x="118.046" y="167.356" width="25.8966" height="24.3737" stroke="white" stroke-opacity="0.03" stroke-width="0.5"/>
<rect x="118.141" y="192.158" width="25.8792" height="25.3408" stroke="white" stroke-opacity="0.03" stroke-width="0.5"/>
<rect x="118.141" y="217.46" width="25.8792" height="24.8025" stroke="white" stroke-opacity="0.03" stroke-width="0.5"/>
<rect x="143.983" y="-7.03198" width="25.3408" height="25.3408" stroke="white" stroke-opacity="0.03" stroke-width="0.5"/>
<rect x="143.983" y="18.2708" width="25.3408" height="24.8025" stroke="white" stroke-opacity="0.03" stroke-width="0.5"/>
<rect x="143.983" y="43.0347" width="25.3408" height="24.8025" stroke="white" stroke-opacity="0.03" stroke-width="0.5"/>
<rect x="143.983" y="67.7988" width="25.3408" height="25.3408" stroke="white" stroke-opacity="0.03" stroke-width="0.5"/>
<rect x="143.983" y="92.5632" width="25.3408" height="25.3408" stroke="white" stroke-opacity="0.03" stroke-width="0.5"/>
<rect x="143.983" y="117.865" width="25.3408" height="24.8025" stroke="white" stroke-opacity="0.03" stroke-width="0.5"/>
<rect x="143.983" y="142.63" width="25.3408" height="24.8025" stroke="white" stroke-opacity="0.03" stroke-width="0.5"/>
<rect x="143.983" y="167.394" width="25.3408" height="25.3408" stroke="white" stroke-opacity="0.03" stroke-width="0.5"/>
<rect x="143.983" y="217.46" width="25.3408" height="24.8025" stroke="white" stroke-opacity="0.03" stroke-width="0.5"/>
<path d="M42.1143 45.0664V42.4878H42.4626V45.0664H42.1143ZM40.9982 43.9502V43.604H43.5788V43.9502H40.9982Z" fill="white"/>
<path d="M92.7799 45.0664V42.4878H93.1282V45.0664H92.7799ZM91.6637 43.9502V43.604H94.2444V43.9502H91.6637Z" fill="white"/>
<path d="M143.923 45.0664V42.4878H144.272V45.0664H143.923ZM142.807 43.9502V43.604H145.388V43.9502H142.807Z" fill="white"/>
<path d="M42.1143 94.346V91.7673H42.4626V94.346H42.1143ZM40.9982 93.2298V92.8835H43.5788V93.2298H40.9982Z" fill="white"/>
<path d="M92.7799 94.346V91.7673H93.1282V94.346H92.7799ZM91.6637 93.2298V92.8835H94.2444V93.2298H91.6637Z" fill="white"/>
<path d="M42.1143 144.533V141.955H42.4626V144.533H42.1143ZM40.9982 143.417V143.071H43.5788V143.417H40.9982Z" fill="white"/>
<path d="M92.7799 144.533V141.955H93.1282V144.533H92.7799ZM91.6637 143.417V143.071H94.2444V143.417H91.6637Z" fill="white"/>
<path d="M143.923 144.533V141.955H144.272V144.533H143.923ZM142.807 143.417V143.071H145.388V143.417H142.807Z" fill="white"/>
<path d="M42.1143 193.813V191.234H42.4626V193.813H42.1143ZM40.9982 192.697V192.35H43.5788V192.697H40.9982Z" fill="white"/>
<path d="M92.7799 193.813V191.234H93.1282V193.813H92.7799ZM91.6637 192.697V192.35H94.2444V192.697H91.6637Z" fill="white"/>
</g>
<defs>
<clipPath id="clip0_435_3733">
<rect width="176" height="224" fill="white"/>
</clipPath>
</defs>
</svg>
