<svg width="24" height="25" viewBox="0 0 24 25" fill="none" xmlns="http://www.w3.org/2000/svg">
<path fill-rule="evenodd" clip-rule="evenodd" d="M8.5 5.58701C6.84315 5.58701 5.5 6.93016 5.5 8.58701C5.5 10.2439 6.84315 11.587 8.5 11.587C10.1569 11.587 11.5 10.2439 11.5 8.58701C11.5 6.93016 10.1569 5.58701 8.5 5.58701Z" fill="#98A2B3"/>
<path fill-rule="evenodd" clip-rule="evenodd" d="M7.7587 2.08701H16.2413C17.0463 2.087 17.7106 2.08699 18.2518 2.1312C18.8139 2.17713 19.3306 2.27569 19.816 2.52298C20.5686 2.90648 21.1805 3.5184 21.564 4.27105C21.8113 4.75638 21.9099 5.27309 21.9558 5.83518C22 6.3764 22 7.04078 22 7.84578V15.0763L22.0001 15.0869V16.3282C22.0001 17.1331 22.0001 17.7975 21.9559 18.3387C21.929 18.6675 21.8841 18.9808 21.802 19.2813C21.7613 19.4304 21.7114 19.5763 21.65 19.7195C21.6235 19.7811 21.5949 19.8423 21.564 19.903C21.1805 20.6556 20.5686 21.2675 19.816 21.651C19.3306 21.8983 18.8139 21.9969 18.2518 22.0428C17.7106 22.087 17.0463 22.087 16.2413 22.087H7.74988C7.63125 22.087 7.51569 22.087 7.40312 22.0869H6.89419C6.62381 22.0869 6.35805 22.0869 6.14408 22.068L6.1222 22.066C5.99148 22.0601 5.86687 22.0525 5.74818 22.0428C5.18608 21.9969 4.66937 21.8983 4.18404 21.651C3.43139 21.2675 2.81947 20.6556 2.43598 19.903C2.18868 19.4176 2.09012 18.9009 2.04419 18.3388C1.99998 17.7976 1.99999 17.1333 2 16.3283V7.84571C1.99999 7.04075 1.99998 6.37638 2.04419 5.83518C2.09012 5.27309 2.18868 4.75638 2.43598 4.27105C2.81947 3.5184 3.43139 2.90648 4.18404 2.52298C4.66937 2.27569 5.18608 2.17713 5.74818 2.1312C6.28937 2.08699 6.95374 2.087 7.7587 2.08701ZM20 7.88701V12.6726L17.816 10.4886C17.6375 10.3101 17.4638 10.1363 17.3045 10.0011C17.1297 9.85266 16.9078 9.69309 16.6181 9.59896C16.2164 9.46844 15.7837 9.46844 15.382 9.59896C15.0923 9.69309 14.8704 9.85266 14.6956 10.0011C14.5364 10.1363 14.3626 10.3101 14.1841 10.4886L5.6323 19.0404C5.44109 19.2316 5.25314 19.4194 5.11525 19.5842C5.07265 19.635 5.01521 19.7054 4.95693 19.7935C4.64243 19.6012 4.38624 19.3252 4.21799 18.995C4.1383 18.8386 4.07337 18.6144 4.03755 18.176C4.00078 17.7259 4 17.1436 4 16.287V7.88701C4 7.03043 4.00078 6.44814 4.03755 5.99805C4.07337 5.55963 4.1383 5.33543 4.21799 5.17903C4.40973 4.80271 4.7157 4.49674 5.09202 4.305C5.24842 4.22531 5.47262 4.16038 5.91104 4.12456C6.36113 4.08779 6.94342 4.08701 7.8 4.08701H16.2C17.0566 4.08701 17.6389 4.08779 18.089 4.12456C18.5274 4.16038 18.7516 4.22531 18.908 4.305C19.2843 4.49674 19.5903 4.80271 19.782 5.17903C19.8617 5.33543 19.9266 5.55963 19.9624 5.99805C19.9992 6.44814 20 7.03043 20 7.88701Z" fill="#98A2B3"/>
</svg>
