<svg width="20" height="21" viewBox="0 0 20 21" fill="none" xmlns="http://www.w3.org/2000/svg">
<path fill-rule="evenodd" clip-rule="evenodd" d="M10.5227 0.336112C10.1804 0.243432 9.81962 0.243432 9.47732 0.336112C9.07996 0.443701 8.74541 0.706355 8.4784 0.915985L8.40377 0.974402L1.54376 6.30988C1.16713 6.60216 0.835316 6.85966 0.588058 7.19396C0.371066 7.48735 0.20942 7.81785 0.111058 8.16926C-0.00102222 8.56967 -0.000568387 8.98968 -5.31646e-05 9.46642L1.64536e-05 16.8383C-1.42778e-06 17.3654 -1.69259e-05 17.8202 0.0305868 18.1948C0.0628879 18.5901 0.134204 18.9833 0.326998 19.3617C0.614618 19.9262 1.07356 20.3851 1.63805 20.6728C2.01643 20.8656 2.40964 20.9369 2.80499 20.9692C3.17956 20.9998 3.63431 20.9998 4.16145 20.9997H15.8386C16.3657 20.9998 16.8205 20.9998 17.195 20.9692C17.5904 20.9369 17.9836 20.8656 18.362 20.6728C18.9265 20.3851 19.3854 19.9262 19.673 19.3617C19.8658 18.9833 19.9371 18.5901 19.9694 18.1948C20.0001 17.8202 20 17.3654 20 16.8383L20.0001 9.46643C20.0006 8.98969 20.0011 8.56967 19.889 8.16926C19.7906 7.81785 19.629 7.48735 19.412 7.19396C19.1647 6.85966 18.8329 6.60216 18.4563 6.30987L11.5963 0.974403L11.5216 0.915989C11.2546 0.706358 10.9201 0.443702 10.5227 0.336112ZM6.00003 14.9998C5.44775 14.9998 5.00003 15.4475 5.00003 15.9998C5.00003 16.552 5.44775 16.9998 6.00003 16.9998H14C14.5523 16.9998 15 16.552 15 15.9998C15 15.4475 14.5523 14.9998 14 14.9998H6.00003Z" fill="#035C99"/>
</svg>
