<svg width="20" height="20" viewBox="0 0 20 20" fill="none" xmlns="http://www.w3.org/2000/svg">
<path fill-rule="evenodd" clip-rule="evenodd" d="M10 0.833496C4.9374 0.833496 0.833344 4.93755 0.833344 10.0002C0.833344 15.0628 4.9374 19.1668 10 19.1668C15.0626 19.1668 19.1667 15.0628 19.1667 10.0002C19.1667 4.93755 15.0626 0.833496 10 0.833496ZM10 5.8335C9.53977 5.8335 9.16668 6.20659 9.16668 6.66683C9.16668 7.12707 9.53977 7.50016 10 7.50016H10.0083C10.4686 7.50016 10.8417 7.12707 10.8417 6.66683C10.8417 6.20659 10.4686 5.8335 10.0083 5.8335H10ZM10.8333 10.0002C10.8333 9.53992 10.4602 9.16683 10 9.16683C9.53977 9.16683 9.16668 9.53992 9.16668 10.0002V13.3335C9.16668 13.7937 9.53977 14.1668 10 14.1668C10.4602 14.1668 10.8333 13.7937 10.8333 13.3335V10.0002Z" fill="#98A2B3"/>
</svg>
