<svg width="22" height="18" viewBox="0 0 22 18" fill="none" xmlns="http://www.w3.org/2000/svg">
<path fill-rule="evenodd" clip-rule="evenodd" d="M7.16134 -0.000348123C9.72041 0.00347619 12.2795 0.00347623 14.8386 -0.000348123C15.5221 -0.00136867 16.122 -0.00226441 16.6565 0.207958C17.1239 0.391779 17.5376 0.689997 17.8598 1.07527C18.2283 1.51588 18.4171 2.08526 18.6323 2.73398C18.8465 3.37976 19.0619 4.02512 19.2773 4.67048L19.584 5.58973L20.5528 5.10537C21.0467 4.85838 21.6474 5.0586 21.8944 5.55258C22.1414 6.04656 21.9412 6.64723 21.4472 6.89422L20.8498 7.19292C21.1354 7.48294 21.3769 7.81664 21.564 8.18383C21.8113 8.66917 21.9099 9.18587 21.9558 9.74797C22 10.2892 22 10.9535 22 11.7585L21.9998 12.6863C21.9997 13.3187 21.9995 13.9512 22 14.5837C22.0003 14.9644 22.0006 15.2922 21.9423 15.5851C21.7056 16.7751 20.7753 17.7054 19.5852 17.9422C19.1895 18.0209 18.7759 18.0127 18.3682 18.0047C18.2447 18.0022 18.1217 17.9998 18 17.9998C16.5135 17.9998 15.2795 16.9187 15.0415 15.4998H6.9585C6.72046 16.9187 5.48647 17.9998 3.99997 17.9998C3.8782 17.9998 3.75525 18.0022 3.63176 18.0047C3.22401 18.0127 2.81046 18.0209 2.4147 17.9422C1.22463 17.7054 0.294339 16.7751 0.057619 15.5851C-0.000633296 15.2922 -0.000372343 14.9644 -6.94325e-05 14.5837C0.000435914 13.9494 0.000280528 13.3152 0.000125143 12.6809L-2.55635e-05 11.7585C-3.83189e-05 10.9535 -4.88125e-05 10.2892 0.0441685 9.74797C0.0900937 9.18587 0.188658 8.66917 0.435949 8.18383C0.623043 7.81664 0.864508 7.48294 1.15016 7.19292L0.552761 6.89422C0.0587828 6.64723 -0.141442 6.04656 0.105548 5.55258C0.352537 5.0586 0.95321 4.85838 1.44719 5.10537L2.41591 5.58973L2.72262 4.67048C2.93799 4.0253 3.15355 3.37956 3.36767 2.73397C3.58284 2.08525 3.77168 1.51588 4.14015 1.07527C4.46233 0.689998 4.87609 0.391779 5.34347 0.207958C5.87799 -0.00226441 6.47787 -0.00136867 7.16134 -0.000348123ZM4.38356 6.0113C4.78758 5.99978 5.24444 5.99979 5.75868 5.9998H16.2413C16.7555 5.99979 17.2124 5.99978 17.6164 6.0113L16.7806 3.50409C16.4914 2.63633 16.4177 2.46849 16.3256 2.35829C16.2182 2.22986 16.0803 2.13046 15.9245 2.06918C15.7908 2.0166 15.6082 1.9998 14.6935 1.9998H7.3064C6.3917 1.9998 6.20918 2.0166 6.07549 2.06918C5.91969 2.13046 5.78177 2.22986 5.67438 2.35829C5.58222 2.46849 5.50856 2.63633 5.2193 3.50409L4.38356 6.0113ZM2.99997 10C2.99997 9.44771 3.44768 9 3.99997 9H6.99997C7.55225 9 7.99997 9.44771 7.99997 10C7.99997 10.5523 7.55225 11 6.99997 11H3.99997C3.44768 11 2.99997 10.5523 2.99997 10ZM15 9C14.4477 9 14 9.44771 14 10C14 10.5523 14.4477 11 15 11H18C18.5523 11 19 10.5523 19 10C19 9.44771 18.5523 9 18 9H15Z" fill="#035C99"/>
</svg>
