<svg width="12" height="16" viewBox="0 0 12 16" fill="none" xmlns="http://www.w3.org/2000/svg">
<path fill-rule="evenodd" clip-rule="evenodd" d="M0 6.6665C0 3.3528 2.68629 0.666504 6 0.666504C9.31371 0.666504 12 3.3528 12 6.6665C12 8.35062 11.2354 9.82666 10.1949 11.1778C9.3253 12.3069 8.21222 13.4104 7.10043 14.5125L7.09965 14.5133C6.88964 14.7215 6.67968 14.9296 6.4714 15.1379C6.21106 15.3983 5.78895 15.3983 5.5286 15.1379C5.32018 14.9295 5.1096 14.7207 4.89944 14.5124C3.78764 13.4102 2.6747 12.3069 1.80515 11.1778C0.764554 9.82666 0 8.35062 0 6.6665ZM8 6.6665C8 7.77107 7.10457 8.6665 6 8.6665C4.89543 8.6665 4 7.77107 4 6.6665C4 5.56193 4.89543 4.6665 6 4.6665C7.10457 4.6665 8 5.56193 8 6.6665Z" fill="#98A2B3"/>
</svg>
