<svg width="20" height="20" viewBox="0 0 20 20" fill="none" xmlns="http://www.w3.org/2000/svg">
<path d="M7.93136 3.39004C7.74613 3.34041 7.49529 3.33325 6.66666 3.33325H6.24999C5.65616 3.33325 5.25253 3.3337 4.93883 3.35511C4.63262 3.376 4.47343 3.41404 4.36219 3.46012C3.95381 3.62927 3.62935 3.95373 3.46019 4.36211C3.41411 4.47336 3.37607 4.63254 3.35518 4.93875C3.33378 5.25245 3.33332 5.65609 3.33332 6.24992V13.7499C3.33332 14.3437 3.33378 14.7474 3.35518 15.0611C3.37607 15.3673 3.41411 15.5265 3.46019 15.6377C3.62935 16.0461 3.9538 16.3706 4.36218 16.5397C4.47343 16.5858 4.63261 16.6238 4.93883 16.6447C5.25253 16.6661 5.65616 16.6666 6.24999 16.6666H6.66666C7.49529 16.6666 7.74613 16.6594 7.93136 16.6098C8.50651 16.4557 8.95576 16.0064 9.10987 15.4313C9.1595 15.2461 9.16666 14.9952 9.16666 14.1666C9.16666 13.7063 9.53975 13.3333 9.99999 13.3333C10.4602 13.3333 10.8333 13.7063 10.8333 14.1666L10.8334 14.2812C10.8337 14.944 10.834 15.4363 10.7197 15.8626C10.4115 17.013 9.51303 17.9114 8.36272 18.2197C7.93634 18.3339 7.44413 18.3337 6.7813 18.3333L6.22143 18.3333C5.66327 18.3333 5.20255 18.3333 4.82538 18.3075C4.4343 18.2808 4.07256 18.2237 3.72438 18.0795C2.90762 17.7412 2.25871 17.0923 1.92039 16.2755C1.77617 15.9274 1.71906 15.5656 1.69238 15.1745C1.66664 14.7974 1.66665 14.3366 1.66666 13.7785V6.22136C1.66665 5.66321 1.66664 5.20247 1.69238 4.8253C1.71906 4.43423 1.77617 4.07248 1.92039 3.72431C2.25871 2.90754 2.90762 2.25863 3.72438 1.92032C4.07256 1.7761 4.4343 1.71899 4.82538 1.6923C5.20255 1.66657 5.66327 1.66658 6.22144 1.66658L6.78131 1.66654C7.44413 1.66618 7.93635 1.66592 8.36272 1.78016C9.51303 2.08839 10.4115 2.98688 10.7197 4.13719C10.834 4.56356 10.8337 5.05578 10.8334 5.71859L10.8333 5.83325C10.8333 6.29349 10.4602 6.66658 9.99999 6.66658C9.53975 6.66658 9.16666 6.29349 9.16666 5.83325C9.16666 5.00462 9.1595 4.75378 9.10987 4.56855C8.95576 3.9934 8.50651 3.54415 7.93136 3.39004Z" fill="#98A2B3"/>
<path d="M12.7441 5.24402C13.0695 4.91858 13.5971 4.91858 13.9226 5.24402L18.0892 9.41068C18.4147 9.73612 18.4147 10.2638 18.0892 10.5892L13.9226 14.7559C13.5971 15.0813 13.0695 15.0813 12.7441 14.7559C12.4186 14.4304 12.4186 13.9028 12.7441 13.5773L15.4881 10.8333H7.49999C7.03975 10.8333 6.66666 10.4602 6.66666 9.99994C6.66666 9.5397 7.03975 9.16661 7.49999 9.16661H15.4881L12.7441 6.42253C12.4186 6.09709 12.4186 5.56945 12.7441 5.24402Z" fill="#98A2B3"/>
</svg>
