<svg width="22" height="20" viewBox="0 0 22 20" fill="none" xmlns="http://www.w3.org/2000/svg">
<path d="M20.7655 4.69999C21.2989 4.84293 21.6155 5.39127 21.4726 5.92473C21.3296 6.4582 20.7813 6.77478 20.2478 6.63184L19.8423 6.52318C21.5413 10.8284 19.8788 15.8434 15.75 18.2271C13.0145 19.8065 9.81961 19.8698 7.14087 18.6814C6.63604 18.4574 6.40835 17.8666 6.63231 17.3618C6.85628 16.857 7.44709 16.6293 7.95193 16.8532C10.0715 17.7936 12.5915 17.7413 14.75 16.4951C17.9059 14.673 19.2367 10.9036 18.1006 7.58082L18.0085 7.92473C17.8655 8.4582 17.3172 8.77478 16.7837 8.63184C16.2503 8.4889 15.9337 7.94056 16.0766 7.4071L16.8087 4.67505C16.9516 4.14158 17.5 3.825 18.0334 3.96794L20.7655 4.69999Z" fill="#035C99"/>
<path d="M14.8591 1.31841C15.3639 1.54238 15.5916 2.13319 15.3676 2.63802C15.1436 3.14285 14.5528 3.37054 14.048 3.14657C11.9285 2.20626 9.40842 2.25853 7.24994 3.50473C4.09396 5.32684 2.76325 9.0963 3.8993 12.4191L3.99147 12.0751C4.13441 11.5416 4.68274 11.225 5.21621 11.368C5.74968 11.5109 6.06626 12.0592 5.92332 12.5927L5.19127 15.3248C5.04833 15.8582 4.49999 16.1748 3.96652 16.0319L1.23447 15.2998C0.701005 15.1569 0.384423 14.6085 0.527364 14.0751C0.670307 13.5416 1.21864 13.225 1.75211 13.368L2.1576 13.4766C0.458647 9.1714 2.12117 4.15643 6.24994 1.77268C8.98545 0.193335 12.1803 0.130001 14.8591 1.31841Z" fill="#035C99"/>
</svg>
