<svg width="20" height="21" viewBox="0 0 20 21" fill="none" xmlns="http://www.w3.org/2000/svg">
<path fill-rule="evenodd" clip-rule="evenodd" d="M6.99998 20C6.99998 19.4477 7.4477 19 7.99998 19H12C12.5523 19 13 19.4477 13 20C13 20.5523 12.5523 21 12 21H7.99998C7.4477 21 6.99998 20.5523 6.99998 20Z" fill="white"/>
<path fill-rule="evenodd" clip-rule="evenodd" d="M5.05023 2.05025C6.36299 0.737498 8.14347 0 9.99998 0C11.8565 0 13.637 0.737498 14.9497 2.05025C16.2625 3.36301 17 5.14349 17 7C17 9.91267 17.732 11.8439 18.4994 13.0771L18.5112 13.0962C18.8685 13.6704 19.151 14.1243 19.3414 14.4547C19.4368 14.6202 19.5237 14.7797 19.5881 14.9215C19.6202 14.9922 19.6562 15.079 19.6843 15.1733C19.7076 15.2515 19.752 15.4187 19.7353 15.6223C19.7241 15.7591 19.6962 15.9928 19.5621 16.2343C19.4279 16.4758 19.2442 16.623 19.134 16.7047C18.8837 16.8904 18.5963 16.9329 18.5003 16.947L18.4959 16.9477C18.3485 16.9695 18.1812 16.9804 18.0125 16.9869C17.6772 17 17.2131 17 16.6358 17H3.36413C2.78691 17 2.32276 17 1.98751 16.9869C1.81875 16.9804 1.65148 16.9695 1.50407 16.9477L1.49964 16.947C1.40371 16.9329 1.11628 16.8904 0.865988 16.7047C0.755748 16.623 0.572021 16.4758 0.437869 16.2343C0.303717 15.9928 0.275824 15.7591 0.264635 15.6223C0.247987 15.4187 0.292388 15.2515 0.315694 15.1733C0.343786 15.079 0.379728 14.9922 0.411856 14.9215C0.476221 14.7797 0.563153 14.6202 0.658573 14.4547C0.849001 14.1243 1.13148 13.6703 1.4888 13.0961L1.5006 13.0771C2.26798 11.8439 2.99998 9.91267 2.99998 7C2.99998 5.14348 3.73748 3.36301 5.05023 2.05025Z" fill="white"/>
</svg>
