<svg width="20" height="23" viewBox="0 0 20 23" fill="none" xmlns="http://www.w3.org/2000/svg">
<path fill-rule="evenodd" clip-rule="evenodd" d="M5.7587 3.88854e-07H12.2413C13.0463 -1.15136e-05 13.7106 -2.13385e-05 14.2518 0.0441953C14.8139 0.0901205 15.3306 0.188685 15.816 0.435976C16.5686 0.819469 17.1805 1.43139 17.564 2.18404C17.8113 2.66938 17.9099 3.18608 17.9558 3.74818C18 4.28937 18 4.95372 18 5.75868V9.97424C18 10.5239 18 10.7987 17.9362 10.9126C17.8598 11.0488 17.83 11.0749 17.6849 11.1327C17.5636 11.1809 17.1753 11.1294 16.3987 11.0263C16.2682 11.0089 16.1352 11 16 11C14.3431 11 13 12.3431 13 14C11.3431 14 10 15.3431 10 17C10 18.6569 11.3431 20 13 20C13 20.162 13.0128 20.3209 13.0375 20.4759C13.1535 21.2036 13.2115 21.5675 13.1655 21.6908C13.112 21.8343 13.081 21.8712 12.9487 21.9482C12.8349 22.0145 12.5766 22.0177 12.06 22.0241C10.7933 22.0398 9.52483 22.0278 8.25732 22.0158C7.42399 22.0079 6.59048 22 5.75868 22C4.95372 22 4.28937 22 3.74818 21.9558C3.18608 21.9099 2.66938 21.8113 2.18404 21.564C1.43139 21.1805 0.819469 20.5686 0.435976 19.816C0.188685 19.3306 0.0901204 18.8139 0.0441952 18.2518C-2.15396e-05 17.7106 -1.16214e-05 17.0463 3.94415e-07 16.2413V5.75869C-1.16214e-05 4.95373 -2.15396e-05 4.28936 0.0441952 3.74818C0.0901204 3.18608 0.188685 2.66938 0.435976 2.18404C0.819469 1.43139 1.43139 0.819469 2.18404 0.435976C2.66938 0.188685 3.18608 0.0901205 3.74818 0.0441953C4.28936 -2.13385e-05 4.95375 -1.15136e-05 5.7587 3.88854e-07ZM4 4C3.44772 4 3 4.44772 3 5C3 5.55229 3.44772 6 4 6H13C13.5523 6 14 5.55229 14 5C14 4.44772 13.5523 4 13 4H4ZM3 9C3 8.44771 3.44772 8 4 8H10C10.5523 8 11 8.44771 11 9C11 9.55229 10.5523 10 10 10H4C3.44772 10 3 9.55229 3 9ZM3 13C3 12.4477 3.44772 12 4 12H6C6.55229 12 7 12.4477 7 13C7 13.5523 6.55229 14 6 14H4C3.44772 14 3 13.5523 3 13Z" fill="#035C99"/>
<path d="M16 13C16.5523 13 17 13.4477 17 14V16H19C19.5523 16 20 16.4477 20 17C20 17.5523 19.5523 18 19 18H17V20C17 20.5523 16.5523 21 16 21C15.4477 21 15 20.5523 15 20V18H13C12.4477 18 12 17.5523 12 17C12 16.4477 12.4477 16 13 16H15V14C15 13.4477 15.4477 13 16 13Z" fill="#035C99"/>
</svg>
