<svg width="48" height="48" viewBox="0 0 48 48" fill="none" xmlns="http://www.w3.org/2000/svg">
<g clip-path="url(#clip0_1_20576)">
<g clip-path="url(#clip1_1_20576)">
<circle cx="24" cy="24" r="24" fill="#98A2B3"/>
<path fill-rule="evenodd" clip-rule="evenodd" d="M15.4181 30.3031C17.3911 27.692 20.4989 26 24 26C27.5011 26 30.6089 27.692 32.5819 30.3031C32.5908 30.3149 32.5997 30.3268 32.6087 30.3386C32.7784 30.563 32.9603 30.8035 33.0902 31.0356C33.2476 31.3165 33.3642 31.6414 33.357 32.0366C33.3512 32.3542 33.2549 32.6516 33.138 32.8864C33.0212 33.1212 32.8419 33.3772 32.592 33.5734C32.2587 33.835 31.8958 33.9276 31.5734 33.9662C31.2905 34.0001 30.9553 34.0001 30.6183 34C30.6031 34 30.588 34 30.5728 34H17.4272C17.412 34 17.3969 34 17.3817 34C17.0447 34.0001 16.7095 34.0001 16.4266 33.9662C16.1043 33.9276 15.7414 33.835 15.408 33.5734C15.1581 33.3772 14.9789 33.1212 14.862 32.8864C14.7451 32.6516 14.6489 32.3542 14.643 32.0366C14.6358 31.6414 14.7524 31.3165 14.9098 31.0356C15.0398 30.8035 15.2216 30.563 15.3913 30.3386C15.4003 30.3268 15.4092 30.3149 15.4181 30.3031Z" fill="white"/>
<path fill-rule="evenodd" clip-rule="evenodd" d="M18.5 19.5C18.5 16.4624 20.9624 14 24 14C27.0376 14 29.5 16.4624 29.5 19.5C29.5 22.5376 27.0376 25 24 25C20.9624 25 18.5 22.5376 18.5 19.5Z" fill="white"/>
</g>
</g>
<defs>
<clipPath id="clip0_1_20576">
<rect width="48" height="48" fill="white"/>
</clipPath>
<clipPath id="clip1_1_20576">
<rect width="48" height="48" fill="white"/>
</clipPath>
</defs>
</svg>
