<svg width="22" height="20" viewBox="0 0 22 20" fill="none" xmlns="http://www.w3.org/2000/svg">
<path fill-rule="evenodd" clip-rule="evenodd" d="M0 3C0 1.34315 1.34315 0 3 0H19C20.6569 0 22 1.34315 22 3C22 4.65685 20.6569 6 19 6H3C1.34315 6 0 4.65685 0 3Z" fill="#035C99"/>
<path fill-rule="evenodd" clip-rule="evenodd" d="M3 8C2.44772 8 2 8.44771 2 9V14.2413C1.99999 15.0463 1.99998 15.7106 2.04419 16.2518C2.09012 16.8139 2.18868 17.3306 2.43597 17.816C2.81947 18.5686 3.43139 19.1805 4.18404 19.564C4.66937 19.8113 5.18608 19.9099 5.74817 19.9558C6.28936 20 6.95372 20 7.75868 20H14.2413C15.0463 20 15.7106 20 16.2518 19.9558C16.8139 19.9099 17.3306 19.8113 17.816 19.564C18.5686 19.1805 19.1805 18.5686 19.564 17.816C19.8113 17.3306 19.9099 16.8139 19.9558 16.2518C20 15.7106 20 15.0463 20 14.2413V9C20 8.44771 19.5523 8 19 8H3ZM9 11C8.44772 11 8 11.4477 8 12C8 12.5523 8.44772 13 9 13H13C13.5523 13 14 12.5523 14 12C14 11.4477 13.5523 11 13 11H9Z" fill="#035C99"/>
</svg>
