<svg width="20" height="20" viewBox="0 0 20 20" fill="none" xmlns="http://www.w3.org/2000/svg">
<path fill-rule="evenodd" clip-rule="evenodd" d="M1.41812 16.3031C3.39108 13.692 6.49885 12 9.99997 12C13.5011 12 16.6089 13.692 18.5818 16.3031C18.5907 16.3149 18.5997 16.3268 18.6087 16.3386C18.7783 16.563 18.9602 16.8035 19.0902 17.0356C19.2475 17.3165 19.3642 17.6414 19.3569 18.0366C19.3511 18.3542 19.2549 18.6516 19.138 18.8864C19.0211 19.1212 18.8419 19.3772 18.592 19.5734C18.2586 19.835 17.8957 19.9276 17.5733 19.9662C17.2905 20.0001 16.9553 20.0001 16.6183 20C16.6031 20 16.5879 20 16.5727 20H3.42721C3.41202 20 3.39683 20 3.38165 20C3.04465 20.0001 2.70946 20.0001 2.42662 19.9662C2.10423 19.9276 1.74132 19.835 1.408 19.5734C1.15805 19.3772 0.978825 19.1212 0.861949 18.8864C0.745073 18.6516 0.648828 18.3542 0.643019 18.0366C0.635792 17.6414 0.7524 17.3165 0.909735 17.0356C1.03972 16.8035 1.22162 16.563 1.39125 16.3386C1.40025 16.3268 1.4092 16.3149 1.41812 16.3031Z" fill="#035C99"/>
<path fill-rule="evenodd" clip-rule="evenodd" d="M4.49997 5.5C4.49997 2.46243 6.96241 0 9.99997 0C13.0375 0 15.5 2.46243 15.5 5.5C15.5 8.53757 13.0375 11 9.99997 11C6.96241 11 4.49997 8.53757 4.49997 5.5Z" fill="#035C99"/>
</svg>
