<svg width="20" height="20" viewBox="0 0 20 20" fill="none" xmlns="http://www.w3.org/2000/svg">
<path fill-rule="evenodd" clip-rule="evenodd" d="M13.5681 2.50544e-06C13.3157 -2.74155e-05 13.0699 -5.65574e-05 12.8618 0.0169504C12.6332 0.0356272 12.3634 0.0796947 12.092 0.217992C11.7157 0.409739 11.4097 0.7157 11.218 1.09202C11.0797 1.36345 11.0356 1.63318 11.017 1.86178C10.9999 2.06991 11 2.31567 11 2.56803V6.4319C11 6.68426 10.9999 6.9301 11.017 7.13824C11.0356 7.36683 11.0797 7.63656 11.218 7.90799C11.4097 8.28431 11.7157 8.59027 12.092 8.78202C12.3634 8.92031 12.6332 8.96438 12.8618 8.98306C13.0699 9.00007 13.3157 9.00004 13.5681 9.00001H17.4319C17.6843 9.00004 17.9301 9.00007 18.1382 8.98306C18.3668 8.96438 18.6366 8.92031 18.908 8.78202C19.2843 8.59027 19.5903 8.28431 19.782 7.90799C19.9203 7.63656 19.9644 7.36683 19.9831 7.13824C20.0001 6.93012 20 6.68439 20 6.43206V2.56813C20 2.3158 20.0001 2.06989 19.9831 1.86178C19.9644 1.63318 19.9203 1.36345 19.782 1.09202C19.5903 0.7157 19.2843 0.409739 18.908 0.217992C18.6366 0.0796947 18.3668 0.0356272 18.1382 0.0169504C17.9301 -5.6861e-05 17.6843 -2.74161e-05 17.4319 2.50544e-06H13.5681ZM14.5 4.5C14.5 3.94772 14.9477 3.5 15.5 3.5H15.51C16.0623 3.5 16.51 3.94772 16.51 4.5C16.51 5.05228 16.0623 5.5 15.51 5.5H15.5C14.9477 5.5 14.5 5.05228 14.5 4.5Z" fill="#035C99"/>
<path d="M11 10C10.4477 10 10 10.4477 10 11C10 11.5523 10.4477 12 11 12H11.01C11.5623 12 12.01 11.5523 12.01 11C12.01 10.4477 11.5623 10 11.01 10H11Z" fill="#035C99"/>
<path d="M15.5 14.5C14.9477 14.5 14.5 14.9477 14.5 15.5C14.5 16.0523 14.9477 16.5 15.5 16.5H15.51C16.0623 16.5 16.51 16.0523 16.51 15.5C16.51 14.9477 16.0623 14.5 15.51 14.5H15.5Z" fill="#035C99"/>
<path d="M12 13.5C12.5523 13.5 13 13.9477 13 14.5V19C13 19.5523 12.5523 20 12 20C11.4477 20 11 19.5523 11 19V14.5C11 13.9477 11.4477 13.5 12 13.5Z" fill="#035C99"/>
<path d="M14.5 11C13.9477 11 13.5 11.4477 13.5 12C13.5 12.5523 13.9477 13 14.5 13H19C19.5523 13 20 12.5523 20 12C20 11.4477 19.5523 11 19 11H14.5Z" fill="#035C99"/>
<path d="M19 14C19.5523 14 20 14.4477 20 15V19C20 19.5523 19.5523 20 19 20H15C14.4477 20 14 19.5523 14 19C14 18.4477 14.4477 18 15 18H18V15C18 14.4477 18.4477 14 19 14Z" fill="#035C99"/>
<path fill-rule="evenodd" clip-rule="evenodd" d="M2.56811 2.50544e-06H6.4319C6.68428 -2.74155e-05 6.93008 -5.65574e-05 7.13824 0.0169504C7.36683 0.0356272 7.63656 0.0796947 7.90799 0.217992C8.28431 0.409739 8.59027 0.7157 8.78202 1.09202C8.92031 1.36345 8.96438 1.63318 8.98306 1.86178C9.00007 2.06994 9.00004 2.31574 9.00001 2.56813V6.43189C9.00004 6.68427 9.00007 6.93007 8.98306 7.13824C8.96438 7.36683 8.92031 7.63656 8.78202 7.90799C8.59027 8.28431 8.28431 8.59027 7.90799 8.78202C7.63656 8.92031 7.36683 8.96438 7.13824 8.98306C6.93007 9.00007 6.68427 9.00004 6.43189 9.00001H2.56812C2.31574 9.00004 2.06994 9.00007 1.86178 8.98306C1.63318 8.96438 1.36345 8.92031 1.09202 8.78202C0.7157 8.59027 0.409739 8.28431 0.217992 7.90799C0.0796947 7.63656 0.0356272 7.36683 0.0169504 7.13824C-5.65574e-05 6.93008 -2.74171e-05 6.68429 2.50383e-06 6.43192L2.50544e-06 2.56811C-2.74155e-05 2.31573 -5.65574e-05 2.06993 0.0169504 1.86178C0.0356272 1.63318 0.0796947 1.36345 0.217992 1.09202C0.409739 0.7157 0.7157 0.409739 1.09202 0.217992C1.36345 0.0796947 1.63318 0.0356272 1.86178 0.0169504C2.06993 -5.65574e-05 2.31573 -2.74155e-05 2.56811 2.50544e-06ZM3.5 4.5C3.5 3.94772 3.94772 3.5 4.5 3.5H4.51C5.06228 3.5 5.51 3.94772 5.51 4.5C5.51 5.05228 5.06228 5.5 4.51 5.5H4.5C3.94772 5.5 3.5 5.05228 3.5 4.5Z" fill="#035C99"/>
<path fill-rule="evenodd" clip-rule="evenodd" d="M2.56811 11C2.31575 11 2.06991 10.9999 1.86178 11.017C1.63318 11.0356 1.36345 11.0797 1.09202 11.218C0.7157 11.4097 0.409739 11.7157 0.217992 12.092C0.0796947 12.3634 0.0356272 12.6332 0.0169504 12.8618C-5.65574e-05 13.0699 -2.74171e-05 13.3157 2.50383e-06 13.5681L2.50544e-06 17.4319C-2.74161e-05 17.6843 -5.6861e-05 17.9301 0.0169504 18.1382C0.0356272 18.3668 0.0796947 18.6366 0.217992 18.908C0.409739 19.2843 0.7157 19.5903 1.09202 19.782C1.36345 19.9203 1.63318 19.9644 1.86178 19.9831C2.06991 20.0001 2.31567 20 2.56802 20H6.43189C6.68424 20 6.9301 20.0001 7.13824 19.9831C7.36683 19.9644 7.63656 19.9203 7.90799 19.782C8.28431 19.5903 8.59027 19.2843 8.78202 18.908C8.92031 18.6366 8.96438 18.3668 8.98306 18.1382C9.00007 17.9301 9.00004 17.6843 9.00001 17.4319V13.5681C9.00004 13.3157 9.00007 13.0699 8.98306 12.8618C8.96438 12.6332 8.92031 12.3634 8.78202 12.092C8.59027 11.7157 8.28431 11.4097 7.90799 11.218C7.63656 11.0797 7.36683 11.0356 7.13824 11.017C6.9301 10.9999 6.68434 11 6.43198 11H2.56811ZM4.5 14.5C3.94772 14.5 3.5 14.9477 3.5 15.5C3.5 16.0523 3.94772 16.5 4.5 16.5H4.51C5.06228 16.5 5.51 16.0523 5.51 15.5C5.51 14.9477 5.06228 14.5 4.51 14.5H4.5Z" fill="#035C99"/>
</svg>
