<svg width="40" height="40" viewBox="0 0 40 40" fill="none" xmlns="http://www.w3.org/2000/svg">
<path d="M4 23.6306C4.31066 23.6306 4.5625 23.3827 4.5625 23.0768C4.5625 22.7709 4.31066 22.5229 4 22.5229C3.68934 22.5229 3.4375 22.7709 3.4375 23.0768C3.4375 23.3827 3.68934 23.6306 4 23.6306Z" stroke="#FF692E" stroke-width="0.2" stroke-miterlimit="10" stroke-linecap="round" stroke-linejoin="round"/>
<path d="M36.4375 18.8307C36.5411 18.8307 36.625 18.748 36.625 18.646C36.625 18.5441 36.5411 18.4614 36.4375 18.4614C36.3339 18.4614 36.25 18.5441 36.25 18.646C36.25 18.748 36.3339 18.8307 36.4375 18.8307Z" fill="#231F20"/>
<path d="M13.25 1.60019C13.3536 1.60019 13.4375 1.51753 13.4375 1.41557C13.4375 1.31361 13.3536 1.23096 13.25 1.23096C13.1464 1.23096 13.0625 1.31361 13.0625 1.41557C13.0625 1.51753 13.1464 1.60019 13.25 1.60019Z" fill="#231F20"/>
<path d="M37.5625 29.7848C37.6661 29.7848 37.75 29.7021 37.75 29.6001C37.75 29.4982 37.6661 29.4155 37.5625 29.4155C37.4589 29.4155 37.375 29.4982 37.375 29.6001C37.375 29.7021 37.4589 29.7848 37.5625 29.7848Z" fill="#231F20"/>
<path d="M36.875 4.67712C37.2892 4.67712 37.625 4.3465 37.625 3.93866C37.625 3.53082 37.2892 3.2002 36.875 3.2002C36.4608 3.2002 36.125 3.53082 36.125 3.93866C36.125 4.3465 36.4608 4.67712 36.875 4.67712Z" stroke="#FFD92F" stroke-width="0.2" stroke-miterlimit="10" stroke-linecap="round" stroke-linejoin="round"/>
<path d="M2.25 30.7077H3.4375M2.8125 31.323V30.1538" stroke="#FF692E" stroke-width="0.2" stroke-miterlimit="10" stroke-linecap="round" stroke-linejoin="round"/>
<path d="M3.4375 2.83069C3.57557 2.83069 3.6875 2.72048 3.6875 2.58453C3.6875 2.44859 3.57557 2.33838 3.4375 2.33838C3.29943 2.33838 3.1875 2.44859 3.1875 2.58453C3.1875 2.72048 3.29943 2.83069 3.4375 2.83069Z" fill="#231F20"/>
<path d="M24.625 2.83069C24.7631 2.83069 24.875 2.72048 24.875 2.58453C24.875 2.44859 24.7631 2.33838 24.625 2.33838C24.4869 2.33838 24.375 2.44859 24.375 2.58453C24.375 2.72048 24.4869 2.83069 24.625 2.83069Z" fill="#231F20"/>
<path d="M2.0625 26.3385C2.20057 26.3385 2.3125 26.2283 2.3125 26.0923C2.3125 25.9564 2.20057 25.8462 2.0625 25.8462C1.92443 25.8462 1.8125 25.9564 1.8125 26.0923C1.8125 26.2283 1.92443 26.3385 2.0625 26.3385Z" fill="#231F20"/>
<path d="M36.6875 12.6769C36.8256 12.6769 36.9375 12.5667 36.9375 12.4307C36.9375 12.2948 36.8256 12.1846 36.6875 12.1846C36.5494 12.1846 36.4375 12.2948 36.4375 12.4307C36.4375 12.5667 36.5494 12.6769 36.6875 12.6769Z" fill="#231F20"/>
<path d="M37 24.923H38.1875M37.5625 25.5384V24.3691" stroke="#33A0EB" stroke-width="0.2" stroke-miterlimit="10" stroke-linecap="round" stroke-linejoin="round"/>
<path d="M2.6875 13.9078H3.875M3.3125 14.5232V13.354" stroke="#FFD92F" stroke-width="0.2" stroke-miterlimit="10" stroke-linecap="round" stroke-linejoin="round"/>
<path d="M8.625 38.1538C7.125 38.1538 5.9375 36.9845 5.9375 35.5076V6.95377C5.9375 5.47685 7.125 4.30762 8.625 4.30762V38.1538Z" fill="white"/>
<path d="M12.875 4.24609H15.125V38.0922H12.875V4.24609Z" fill="#E7C21C"/>
<path d="M7.5625 4.30762H12.9375V38.1538H7.5625V4.30762Z" fill="#FFD92F"/>
<path d="M15 4.30762H16.75V38.1538H15V4.30762Z" fill="white"/>
<path d="M21.75 4.24609H24.375V38.0922H21.75V4.24609Z" fill="#177CC2"/>
<path d="M16.6875 4.30762H22.125V38.1538H16.6875V4.30762Z" fill="#33A0EB"/>
<path d="M24.125 4.30762H25.875V38.1538H24.125V4.30762Z" fill="white"/>
<path d="M30.125 38.0922V4.24609C31.9375 4.24609 33.4375 5.72302 33.4375 7.50763V34.8922C33.375 36.6153 31.9375 38.0922 30.125 38.0922Z" fill="#FF4405"/>
<path d="M25.875 4.30762H31.3125V38.1538H25.875V4.30762Z" fill="#FF692E"/>
<path d="M10.75 6.15381C9.5625 6.15381 8.625 7.07689 8.625 8.24612M8.625 9.29227V9.78458M8.625 29.3538V32.123M20 6.15381C18.8125 6.15381 17.875 7.07689 17.875 8.24612M17.875 9.29227V9.78458M17.875 29.3538V32.123M29.0625 6.15381C27.875 6.15381 26.9375 7.07689 26.9375 8.24612M27 9.29227V9.78458M27 29.3538V32.123" stroke="white" stroke-width="0.5" stroke-miterlimit="10" stroke-linecap="round"/>
<path d="M24.25 4.30762H15.125V38.1538H24.25V4.30762ZM24.25 4.30762V38.2153H31.125C32.375 38.2153 33.375 37.2307 33.375 35.9999V29.1076M24.25 4.30762H31.1875C32.4375 4.30762 33.4375 5.29223 33.4375 6.523V27.8768M6 26.6461V10.4615M6 29.3538V27.8153" stroke="#231F20" stroke-width="0.5" stroke-miterlimit="10" stroke-linecap="round" stroke-linejoin="round"/>
<path d="M6 9.29225V6.46148C6 5.23071 7 4.24609 8.25 4.24609H15.1875V38.0922H8.1875C6.9375 38.0922 5.9375 37.1076 5.9375 35.8769V30.523" stroke="#231F20" stroke-width="0.5" stroke-miterlimit="10" stroke-linecap="round" stroke-linejoin="round"/>
<path d="M13 22.9537H8.125C6.9375 22.9537 6 22.0306 6 20.8614V16.7383C6 15.5691 6.9375 14.646 8.125 14.646H13C14.1875 14.646 15.125 15.5691 15.125 16.7383V20.8614C15.125 22.0306 14.1875 22.9537 13 22.9537ZM22.125 22.9537H17.25C16.0625 22.9537 15.125 22.0306 15.125 20.8614V16.7383C15.125 15.5691 16.0625 14.646 17.25 14.646H22.125C23.3125 14.646 24.25 15.5691 24.25 16.7383V20.8614C24.25 22.0306 23.3125 22.9537 22.125 22.9537ZM24.25 14.7691H33.375V23.0768H24.25V14.7691Z" fill="#FFE4B8"/>
<path d="M6 14.769H7.625V22.769H6V14.769ZM15.25 14.769H16.6875V22.769H15.25V14.769ZM24.375 14.769H25.8125V22.769H24.375V14.769Z" fill="white"/>
<path d="M31.3125 14.769H33V22.769H31.3125V14.769ZM22.125 14.8306H23.8125V22.8306H22.125V14.8306ZM12.9375 14.8306H14.625V22.8306H12.9375V14.8306Z" fill="#E7D0A8"/>
<path d="M15.125 14.769H6V23.0767H15.125M15.125 14.769V23.0767M15.125 14.769H24.25M15.125 23.0767H24.25M24.25 14.769V23.0767M24.25 14.769H33.375V23.0767H24.25M7.875 17.4152H13.1875M7.875 19.2614H13.1875M17.0625 17.4152H22.3125M17.0625 19.2614H22.3125M26.1875 17.4152H31.5M26.1875 19.2614H31.5" stroke="#231F20" stroke-width="0.5" stroke-miterlimit="10" stroke-linecap="round" stroke-linejoin="round"/>
<path d="M28.8125 35.8155C29.5029 35.8155 30.0625 35.2645 30.0625 34.5848C30.0625 33.905 29.5029 33.354 28.8125 33.354C28.1221 33.354 27.5625 33.905 27.5625 34.5848C27.5625 35.2645 28.1221 35.8155 28.8125 35.8155Z" fill="white"/>
<path d="M28.8125 35.8155C29.5029 35.8155 30.0625 35.2645 30.0625 34.5848C30.0625 33.905 29.5029 33.354 28.8125 33.354C28.1221 33.354 27.5625 33.905 27.5625 34.5848C27.5625 35.2645 28.1221 35.8155 28.8125 35.8155Z" stroke="#231F20" stroke-width="0.5" stroke-miterlimit="10" stroke-linecap="round" stroke-linejoin="round"/>
<path d="M10.5625 35.8155C11.2529 35.8155 11.8125 35.2645 11.8125 34.5848C11.8125 33.905 11.2529 33.354 10.5625 33.354C9.87214 33.354 9.3125 33.905 9.3125 34.5848C9.3125 35.2645 9.87214 35.8155 10.5625 35.8155Z" fill="white"/>
<path d="M10.5625 35.8155C11.2529 35.8155 11.8125 35.2645 11.8125 34.5848C11.8125 33.905 11.2529 33.354 10.5625 33.354C9.87214 33.354 9.3125 33.905 9.3125 34.5848C9.3125 35.2645 9.87214 35.8155 10.5625 35.8155Z" stroke="#231F20" stroke-width="0.5" stroke-miterlimit="10" stroke-linecap="round" stroke-linejoin="round"/>
<path d="M19.6875 35.8155C20.3779 35.8155 20.9375 35.2645 20.9375 34.5848C20.9375 33.905 20.3779 33.354 19.6875 33.354C18.9971 33.354 18.4375 33.905 18.4375 34.5848C18.4375 35.2645 18.9971 35.8155 19.6875 35.8155Z" fill="white"/>
<path d="M19.6875 35.8155C20.3779 35.8155 20.9375 35.2645 20.9375 34.5848C20.9375 33.905 20.3779 33.354 19.6875 33.354C18.9971 33.354 18.4375 33.905 18.4375 34.5848C18.4375 35.2645 18.9971 35.8155 19.6875 35.8155Z" stroke="#231F20" stroke-width="0.5" stroke-miterlimit="10" stroke-linecap="round" stroke-linejoin="round"/>
</svg>
