<svg width="24" height="20" viewBox="0 0 24 20" fill="none" xmlns="http://www.w3.org/2000/svg">
<path d="M22.4747 18.4998H21.0001V7.9998C21.0001 7.60198 20.842 7.22045 20.5607 6.93914C20.2794 6.65784 19.8979 6.4998 19.5001 6.4998H15.3751C15.2756 6.4998 15.1802 6.53931 15.1099 6.60964C15.0396 6.67996 15.0001 6.77535 15.0001 6.8748V18.4998H13.5001V2.03824C13.5025 1.8046 13.4518 1.57345 13.3518 1.3623C13.2517 1.15115 13.105 0.96553 12.9226 0.819491C12.6739 0.62565 12.3706 0.515072 12.0555 0.50346C11.7405 0.491848 11.4298 0.579792 11.1676 0.754803L3.66756 5.7498C3.46182 5.88707 3.29321 6.07309 3.17675 6.29129C3.06029 6.50948 2.99959 6.7531 3.00006 7.00043V18.4998H1.52537C1.33156 18.4969 1.14385 18.5676 1.00001 18.6975C0.856169 18.8274 0.766864 19.007 0.750061 19.2001C0.743249 19.3027 0.757604 19.4056 0.792233 19.5024C0.826862 19.5992 0.881026 19.6879 0.95136 19.7629C1.02169 19.8379 1.1067 19.8976 1.20109 19.9384C1.29548 19.9791 1.39725 20 1.50006 19.9998H22.5001C22.6029 20 22.7046 19.9791 22.799 19.9384C22.8934 19.8976 22.9784 19.8379 23.0488 19.7629C23.1191 19.6879 23.1733 19.5992 23.2079 19.5024C23.2425 19.4056 23.2569 19.3027 23.2501 19.2001C23.2333 19.007 23.144 18.8274 23.0001 18.6975C22.8563 18.5676 22.6686 18.4969 22.4747 18.4998ZM7.12506 16.2498C7.12529 16.3526 7.10437 16.4544 7.06361 16.5488C7.02285 16.6432 6.96312 16.7282 6.88813 16.7985C6.81313 16.8688 6.72448 16.923 6.62767 16.9576C6.53086 16.9923 6.42796 17.0066 6.32537 16.9998C6.13211 16.983 5.95239 16.8936 5.82244 16.7495C5.69249 16.6055 5.62196 16.4175 5.62506 16.2236V14.7751C5.62242 14.5814 5.69313 14.3938 5.82302 14.25C5.9529 14.1062 6.13235 14.0168 6.32537 13.9998C6.42796 13.993 6.53086 14.0073 6.62767 14.042C6.72448 14.0766 6.81313 14.1308 6.88813 14.2011C6.96312 14.2714 7.02285 14.3564 7.06361 14.4508C7.10437 14.5452 7.12529 14.647 7.12506 14.7498V16.2498ZM7.12506 10.9998C7.12529 11.1026 7.10437 11.2044 7.06361 11.2988C7.02285 11.3932 6.96312 11.4782 6.88813 11.5485C6.81313 11.6188 6.72448 11.673 6.62767 11.7076C6.53086 11.7423 6.42796 11.7566 6.32537 11.7498C6.13219 11.7328 5.9526 11.6433 5.8227 11.4993C5.69279 11.3553 5.62218 11.1675 5.62506 10.9736V9.52512C5.62242 9.33136 5.69313 9.14378 5.82302 8.99998C5.9529 8.85619 6.13235 8.76682 6.32537 8.7498C6.42796 8.74299 6.53086 8.75735 6.62767 8.79198C6.72448 8.8266 6.81313 8.88077 6.88813 8.9511C6.96312 9.02144 7.02285 9.10644 7.06361 9.20083C7.10437 9.29522 7.12529 9.39699 7.12506 9.4998V10.9998ZM10.8751 16.2498C10.8753 16.3526 10.8544 16.4544 10.8136 16.5488C10.7729 16.6432 10.7131 16.7282 10.6381 16.7985C10.5631 16.8688 10.4745 16.923 10.3777 16.9576C10.2809 16.9923 10.178 17.0066 10.0754 16.9998C9.88243 16.983 9.70299 16.8938 9.57309 16.7502C9.44318 16.6066 9.37244 16.4191 9.37506 16.2254V14.7751C9.37266 14.5815 9.44348 14.3942 9.57334 14.2506C9.7032 14.107 9.88252 14.0177 10.0754 14.0007C10.178 13.9939 10.2809 14.0083 10.3777 14.0429C10.4745 14.0775 10.5631 14.1317 10.6381 14.202C10.7131 14.2724 10.7729 14.3574 10.8136 14.4518C10.8544 14.5462 10.8753 14.6479 10.8751 14.7507V16.2498ZM10.8751 10.9998C10.8753 11.1026 10.8544 11.2044 10.8136 11.2988C10.7729 11.3932 10.7131 11.4782 10.6381 11.5485C10.5631 11.6188 10.4745 11.673 10.3777 11.7076C10.2809 11.7423 10.178 11.7566 10.0754 11.7498C9.88252 11.7328 9.7032 11.6436 9.57334 11.5C9.44348 11.3564 9.37266 11.169 9.37506 10.9754V9.52512C9.37266 9.33152 9.44348 9.14417 9.57334 9.00058C9.7032 8.85698 9.88252 8.76775 10.0754 8.75074C10.178 8.74393 10.2809 8.75828 10.3777 8.79291C10.4745 8.82754 10.5631 8.88171 10.6381 8.95204C10.7131 9.02238 10.7729 9.10738 10.8136 9.20177C10.8544 9.29616 10.8753 9.39793 10.8751 9.50074V10.9998Z" fill="#035C99"/>
</svg>
