<svg width="20" height="20" viewBox="0 0 20 20" fill="none" xmlns="http://www.w3.org/2000/svg">
<path d="M10.4339 1.22716C10.3128 1.19451 10.1681 1.16406 10 1.16406C9.83194 1.16406 9.68719 1.19451 9.56611 1.22716C9.34043 1.28801 9.15088 1.40902 9.01402 1.5036C8.87236 1.60151 8.70298 1.73255 8.51177 1.88047L8.49479 1.89361C7.73419 2.482 6.91122 2.88624 5.81557 3.11412L5.79132 3.11916C5.25735 3.23021 4.82347 3.32044 4.4892 3.4088C4.16443 3.49464 3.82973 3.60317 3.55806 3.79498C3.37513 3.92414 3.20458 4.06773 3.05328 4.25373C2.90198 4.43974 2.79613 4.63595 2.70692 4.84135C2.58148 5.13019 2.5386 5.43336 2.51902 5.7324C2.49999 6.02326 2.49999 6.38183 2.5 6.80618V9.99997C2.5 12.3555 3.78108 14.3193 5.16588 15.762C6.55997 17.2143 8.155 18.2401 8.99842 18.7322L9.03256 18.7522C9.18647 18.8426 9.38626 18.9599 9.65053 19.0165C9.86675 19.0629 10.1333 19.0629 10.3495 19.0165C10.6137 18.9599 10.8135 18.8426 10.9674 18.7522L11.0016 18.7322C11.845 18.2401 13.44 17.2143 14.8341 15.762C16.2189 14.3193 17.5 12.3555 17.5 9.99997V6.80623C17.5 6.3819 17.5 6.02325 17.481 5.7324C17.4614 5.43336 17.4185 5.13019 17.2931 4.84135C17.2039 4.63595 17.098 4.43974 16.9467 4.25373C16.7954 4.06773 16.6249 3.92414 16.4419 3.79498C16.1703 3.60317 15.8356 3.49464 15.5108 3.4088C15.1765 3.32044 14.7426 3.23021 14.2087 3.11916L14.1844 3.11412C13.0888 2.88624 12.2658 2.482 11.5052 1.89361L11.4882 1.88046C11.297 1.73254 11.1276 1.60151 10.986 1.5036C10.8491 1.40902 10.6596 1.28801 10.4339 1.22716Z" fill="#98A2B3"/>
</svg>
