<svg width="102" height="82" viewBox="0 0 102 82" fill="none" xmlns="http://www.w3.org/2000/svg">
<path d="M50.5801 5.87342L16.9043 34.8055L17.5311 47.8962C17.5311 49.4577 19.4147 71.5963 21.2063 71.5963L52.6508 50.5533L80.9837 69.4361C82.7753 69.4361 86.2342 48.8625 86.2342 47.301L88.3284 34.7748L54.6225 5.87342C53.4397 5.05229 51.7629 5.05229 50.5801 5.87342Z" fill="#035C99"/>
<path d="M25.3697 16.2351H79.7033C80.3985 16.2351 81.0653 16.5113 81.5569 17.0029C82.0485 17.4945 82.3247 18.1613 82.3247 18.8565V74.2012C82.3247 74.8964 82.0485 75.5632 81.5569 76.0548C81.0653 76.5464 80.3985 76.8226 79.7033 76.8226H25.3697C24.6745 76.8226 24.0077 76.5464 23.5161 76.0548C23.0245 75.5632 22.7483 74.8964 22.7483 74.2012V18.8565C22.7483 18.1613 23.0245 17.4945 23.5161 17.0029C24.0077 16.5113 24.6745 16.2351 25.3697 16.2351Z" fill="white"/>
<path d="M64.9156 45.0744H27.0444C26.7621 45.0744 26.4913 44.981 26.2917 44.8149C26.0921 44.6488 25.98 44.4235 25.98 44.1886C25.98 43.9536 26.0921 43.7283 26.2917 43.5622C26.4913 43.3961 26.7621 43.3027 27.0444 43.3027H64.9156C65.1979 43.3027 65.4686 43.3961 65.6682 43.5622C65.8678 43.7283 65.98 43.9536 65.98 44.1886C65.98 44.4235 65.8678 44.6488 65.6682 44.8149C65.4686 44.981 65.1979 45.0744 64.9156 45.0744Z" fill="#7FCBFF"/>
<path d="M28.474 37.5833H73.486C73.8135 37.5833 74.1378 37.606 74.4404 37.6501C74.743 37.6942 75.0179 37.7589 75.2495 37.8405C75.4811 37.922 75.6648 38.0188 75.7901 38.1254C75.9155 38.2319 75.98 38.3461 75.98 38.4615C75.98 38.6944 75.7172 38.9178 75.2495 39.0825C74.7818 39.2471 74.1474 39.3397 73.486 39.3397H28.474C27.8125 39.3397 27.1782 39.2471 26.7105 39.0825C26.2428 38.9178 25.98 38.6944 25.98 38.4615C25.98 38.2285 26.2428 38.0052 26.7105 37.8405C27.1782 37.6758 27.8125 37.5833 28.474 37.5833Z" fill="#C8DEF4"/>
<path d="M67.6988 26H27.3012C26.5826 26 26 25.5523 26 25C26 24.4478 26.5826 24 27.3012 24H67.6988C68.4174 24 69 24.4478 69 25C69 25.5523 68.4174 26 67.6988 26Z" fill="#C8DEF4"/>
<path d="M76.6163 32H27.3837C26.6195 32 26 31.5522 26 31C26 30.4478 26.6195 30 27.3837 30H76.6163C77.3804 30 78 30.4478 78 31C78 31.5522 77.3804 32 76.6163 32Z" fill="#7FCBFF"/>
<path d="M53.341 56.6848L69.5906 40.6966C73.8581 36.4977 79.9492 34.0986 86.3423 34.0986C87.8436 34.0986 89.0608 35.0525 89.0608 36.2292V78.9624C89.0608 80.1391 87.031 81.9259 85.5297 81.9259H76.2964L53.341 59.3397C52.5732 58.5843 52.5732 57.4402 53.341 56.6848Z" fill="#177CC2"/>
<path d="M51.9608 56.6557L35.7112 40.6676C31.4436 36.4687 25.3525 34.0696 18.9595 34.0696C17.4581 34.0696 16.241 35.0235 16.241 36.2002V79.1897C16.241 80.3664 17.9836 81.926 19.4849 81.926L29.0053 81.8968L51.9608 59.3107C52.7285 58.5553 52.7285 57.4111 51.9608 56.6557Z" fill="#177CC2"/>
<path d="M89.0608 70.2161V79.4319C89.0608 80.8093 87.6083 81.9258 85.8171 81.9258H19.4847C17.6935 81.9258 16.241 80.8093 16.241 79.4319V70.2161L50.6296 49.1566C51.1892 48.8142 51.8595 48.6332 52.5364 48.6149C53.2888 48.5943 54.0488 48.7753 54.6722 49.1566L89.0608 70.2161Z" fill="#5BBCFF"/>
<path d="M59.0908 50.9983L89.0608 66.2954L89.0607 70.2159L58.5518 51.5286L59.0908 50.9983Z" fill="#035C99"/>
<path d="M46.2109 50.9983L16.241 66.2954L16.241 70.2159L46.7499 51.5286L46.2109 50.9983Z" fill="#035C99"/>
<path d="M35.527 0L28.4984 22.8271L27.3722 26.4848L24.1613 23.7754L15.769 16.695L35.527 0Z" fill="#5BBCFF"/>
<path d="M35.5268 0L11.1076 14.1034L0 10.4223L35.5268 0Z" fill="#177CC2"/>
<path d="M35.5267 0L15.7693 16.6952L11.972 24.2875L11.1074 14.1034L35.5267 0Z" fill="#035C99"/>
<path d="M42.9051 77.2539C42.8664 77.2539 42.8279 77.2482 42.7908 77.2372C41.9752 76.9944 41.1567 76.7161 40.3582 76.4099C40.2592 76.3719 40.1793 76.2961 40.1361 76.1992C40.0929 76.1023 40.09 75.9923 40.128 75.8932C40.166 75.7942 40.2417 75.7143 40.3386 75.6711C40.4355 75.6279 40.5456 75.625 40.6447 75.6629C41.4241 75.9618 42.2229 76.2334 43.019 76.4704C43.1111 76.4978 43.1903 76.5574 43.242 76.6384C43.2937 76.7194 43.3146 76.8163 43.3008 76.9114C43.2869 77.0065 43.2393 77.0934 43.1667 77.1563C43.094 77.2192 43.0012 77.2538 42.9051 77.2539ZM37.4065 75.0668C37.344 75.0668 37.2824 75.0521 37.2267 75.0238C36.4657 74.6401 35.7092 74.2223 34.9781 73.782C34.9331 73.7549 34.8939 73.7192 34.8627 73.677C34.8315 73.6347 34.8089 73.5867 34.7962 73.5357C34.7836 73.4848 34.7811 73.4318 34.7889 73.3798C34.7967 73.3279 34.8147 73.278 34.8418 73.233C34.8689 73.188 34.9046 73.1488 34.9468 73.1176C34.9891 73.0864 35.0371 73.0638 35.0881 73.0512C35.1391 73.0385 35.192 73.036 35.244 73.0438C35.2959 73.0517 35.3458 73.0696 35.3908 73.0967C36.1048 73.5267 36.8437 73.9348 37.5869 74.3095C37.6672 74.3501 37.7316 74.4165 37.7695 74.4982C37.8074 74.5798 37.8167 74.6719 37.7958 74.7594C37.775 74.847 37.7252 74.925 37.6545 74.9807C37.5839 75.0365 37.4965 75.0668 37.4065 75.0668ZM32.3759 71.9507C32.2896 71.9508 32.2056 71.9228 32.1366 71.871C31.4524 71.3593 30.7803 70.8159 30.139 70.2558C30.0722 70.1977 30.0267 70.119 30.0096 70.0322C29.6342 70.1643 29.2522 70.2774 28.8653 70.3709C28.8143 70.3833 28.7613 70.3855 28.7094 70.3774C28.6575 70.3693 28.6077 70.351 28.5629 70.3236C28.518 70.2963 28.479 70.2604 28.4481 70.2179C28.4171 70.1755 28.3948 70.1274 28.3824 70.0763C28.3701 70.0253 28.3679 69.9723 28.376 69.9204C28.3841 69.8685 28.4024 69.8187 28.4297 69.7739C28.4571 69.729 28.493 69.69 28.5354 69.6591C28.5779 69.6281 28.626 69.6058 28.677 69.5934C29.4713 69.4027 30.241 69.1217 30.9714 68.7559C31.0183 68.7322 31.0694 68.718 31.1218 68.7141C31.1742 68.7102 31.2269 68.7166 31.2768 68.7331C31.3267 68.7495 31.3729 68.7756 31.4127 68.8099C31.4526 68.8442 31.4852 68.8861 31.5089 68.933C31.5325 68.9799 31.5467 69.0311 31.5506 69.0835C31.5544 69.1359 31.5479 69.1886 31.5314 69.2385C31.5149 69.2884 31.4888 69.3346 31.4544 69.3743C31.4201 69.4141 31.3782 69.4468 31.3313 69.4704C31.1448 69.5643 30.9549 69.6532 30.7616 69.7372C31.3587 70.2544 31.9819 70.7563 32.6158 71.2304C32.683 71.2807 32.7328 71.3509 32.7579 71.4311C32.783 71.5113 32.7822 71.5974 32.7557 71.6771C32.7291 71.7568 32.6782 71.8261 32.61 71.8752C32.5418 71.9244 32.4599 71.9508 32.3759 71.9507ZM25.4118 70.6979C25.4054 70.6979 25.399 70.6978 25.3925 70.6975C24.5228 70.654 23.6587 70.5329 22.8105 70.3355C22.7072 70.3116 22.6176 70.2476 22.5615 70.1577C22.5053 70.0677 22.4871 69.9592 22.511 69.8559C22.5348 69.7526 22.5987 69.6629 22.6886 69.6067C22.7784 69.5504 22.887 69.5322 22.9903 69.5559C23.7919 69.7426 24.6085 69.8572 25.4304 69.8984C25.5347 69.9033 25.633 69.9489 25.7041 70.0253C25.7753 70.1017 25.8138 70.2029 25.8114 70.3073C25.8089 70.4116 25.7658 70.5109 25.6911 70.5839C25.6165 70.6569 25.5162 70.6978 25.4118 70.6979ZM19.7 69.257C19.6438 69.257 19.5882 69.2451 19.5369 69.222C18.7507 68.8683 17.9855 68.4695 17.2452 68.0277C17.2 68.0008 17.1606 67.9653 17.1292 67.9232C17.0977 67.8812 17.0749 67.8333 17.062 67.7824C17.049 67.7315 17.0462 67.6785 17.0538 67.6265C17.0613 67.5746 17.079 67.5246 17.1058 67.4794C17.1327 67.4343 17.1682 67.3949 17.2102 67.3634C17.2523 67.332 17.3002 67.3091 17.3511 67.2962C17.402 67.2833 17.455 67.2805 17.5069 67.288C17.5589 67.2955 17.6089 67.3132 17.6541 67.3401C18.3679 67.7661 19.1056 68.1506 19.8636 68.4918C19.9473 68.5292 20.0155 68.5942 20.0569 68.6759C20.0984 68.7576 20.1106 68.851 20.0914 68.9406C20.0723 69.0302 20.0229 69.1105 19.9517 69.1681C19.8805 69.2257 19.7916 69.2571 19.7 69.257ZM27.9706 68.0007C27.9151 68.0008 27.8602 67.9893 27.8095 67.967C27.7587 67.9446 27.7132 67.912 27.6757 67.8711C27.0881 67.2324 26.551 66.5491 26.0692 65.8272C26.0401 65.7834 26.0199 65.7344 26.0098 65.6828C25.9996 65.6313 25.9997 65.5782 26.0101 65.5267C26.0205 65.4752 26.0409 65.4262 26.0702 65.3826C26.0995 65.339 26.1371 65.3016 26.1808 65.2725C26.2246 65.2434 26.2737 65.2232 26.3252 65.2131C26.3768 65.203 26.4298 65.2031 26.4814 65.2135C26.5329 65.2239 26.5818 65.2443 26.6254 65.2737C26.669 65.303 26.7064 65.3406 26.7355 65.3844C27.1943 66.0716 27.7057 66.7222 28.2652 67.3302C28.3177 67.3874 28.3524 67.4587 28.3651 67.5353C28.3778 67.6119 28.3679 67.6905 28.3367 67.7616C28.3054 67.8327 28.2542 67.8931 28.1892 67.9356C28.1242 67.978 28.0482 68.0006 27.9706 68.0007ZM33.8517 67.502C33.774 67.502 33.698 67.4793 33.6329 67.4368C33.5678 67.3942 33.5166 67.3337 33.4854 67.2625C33.4542 67.1912 33.4445 67.1125 33.4573 67.0358C33.4702 66.9592 33.5051 66.8879 33.5578 66.8308C33.8067 66.5612 34.0368 66.2748 34.2463 65.9736C34.4948 65.6148 34.7092 65.2334 34.8866 64.8346C34.93 64.738 35.0099 64.6625 35.1089 64.6248C35.2078 64.587 35.3177 64.5901 35.4144 64.6332C35.5112 64.6764 35.5868 64.7561 35.6248 64.855C35.6628 64.9538 35.6601 65.0637 35.6172 65.1605C35.4194 65.6051 35.1804 66.0301 34.9033 66.4301C34.6727 66.7615 34.4196 67.0766 34.1458 67.3733C34.1084 67.4139 34.0629 67.4464 34.0123 67.4685C33.9617 67.4907 33.907 67.5021 33.8517 67.502ZM14.661 66.1673C14.5715 66.1674 14.4846 66.1374 14.4143 66.082C13.7442 65.5561 13.088 64.9903 12.4641 64.4003C12.426 64.3642 12.3953 64.321 12.3738 64.273C12.3524 64.2251 12.3406 64.1734 12.3391 64.1209C12.3362 64.0148 12.3754 63.9119 12.4483 63.8349C12.5212 63.7578 12.6217 63.7128 12.7278 63.7099C12.8338 63.7069 12.9367 63.7462 13.0138 63.8191C13.6199 64.3922 14.2573 64.9419 14.9082 65.4527C14.9737 65.504 15.0215 65.5746 15.045 65.6544C15.0685 65.7343 15.0665 65.8195 15.0393 65.8981C15.0121 65.9768 14.961 66.045 14.8932 66.0932C14.8254 66.1415 14.7442 66.1674 14.661 66.1673ZM24.9187 62.9746C24.8332 62.9745 24.75 62.9471 24.6812 62.8963C24.6124 62.8455 24.5618 62.774 24.5366 62.6923C24.2957 61.9108 24.1736 61.1491 24.1736 60.4285C24.1736 60.3008 24.1775 60.1725 24.1851 60.0471C24.1882 59.9947 24.2017 59.9433 24.2247 59.8961C24.2477 59.8488 24.2797 59.8065 24.3191 59.7717C24.3584 59.7368 24.4042 59.71 24.4539 59.6929C24.5036 59.6758 24.5562 59.6686 24.6086 59.6718C24.6611 59.675 24.7124 59.6884 24.7596 59.7115C24.8069 59.7345 24.8491 59.7666 24.8839 59.806C24.9188 59.8454 24.9455 59.8912 24.9626 59.9409C24.9797 59.9906 24.9868 60.0432 24.9836 60.0956C24.977 60.205 24.9736 60.317 24.9736 60.4285C24.9736 61.0692 25.0838 61.7516 25.3011 62.4567C25.3195 62.5165 25.3236 62.5799 25.3131 62.6416C25.3025 62.7033 25.2777 62.7617 25.2405 62.8121C25.2033 62.8624 25.1548 62.9034 25.0989 62.9316C25.043 62.9598 24.9813 62.9746 24.9187 62.9746ZM35.9412 62.1082C35.8354 62.1082 35.7339 62.0662 35.6589 61.9916C35.584 61.9169 35.5417 61.8156 35.5412 61.7098C35.5421 60.9071 35.4047 60.1103 35.1349 59.3543C35.0989 59.2545 35.104 59.1446 35.1491 59.0486C35.1941 58.9526 35.2754 58.8785 35.3751 58.8424C35.4748 58.8063 35.5848 58.8113 35.6808 58.8563C35.7768 58.9012 35.8511 58.9825 35.8872 59.0822C36.1882 59.9244 36.3418 60.8122 36.3412 61.7066C36.3417 61.8127 36.2999 61.9146 36.2252 61.9899C36.1505 62.0652 36.0489 62.1077 35.9428 62.1082H35.9412ZM10.4247 62.0414C10.366 62.0415 10.3079 62.0286 10.2547 62.0037C10.2015 61.9787 10.1544 61.9423 10.1169 61.8971C9.57116 61.2407 9.04759 60.5509 8.56073 59.847C8.50057 59.7598 8.47749 59.6522 8.49657 59.548C8.51565 59.4437 8.57533 59.3513 8.6625 59.291C8.74967 59.2307 8.8572 59.2075 8.96148 59.2264C9.06576 59.2453 9.15826 59.3049 9.21868 59.392C9.69218 60.0765 10.2014 60.7473 10.7321 61.3857C10.7806 61.4441 10.8116 61.5152 10.8212 61.5905C10.8309 61.6659 10.8189 61.7424 10.7867 61.8112C10.7544 61.88 10.7033 61.9382 10.6392 61.9789C10.5751 62.0197 10.5007 62.0414 10.4247 62.0414ZM25.8306 57.3916C25.7532 57.3915 25.6775 57.3691 25.6126 57.3269C25.5477 57.2847 25.4965 57.2246 25.4651 57.1538C25.4337 57.0831 25.4235 57.0048 25.4358 56.9283C25.448 56.8519 25.4821 56.7807 25.534 56.7233C26.1255 56.0692 26.9138 55.5611 27.8137 55.254C27.9141 55.2197 28.024 55.2268 28.1193 55.2735C28.2145 55.3203 28.2872 55.403 28.3215 55.5034C28.3557 55.6038 28.3487 55.7137 28.3019 55.8089C28.2552 55.9041 28.1725 55.9768 28.0721 56.0111C27.3004 56.2745 26.628 56.7063 26.1274 57.2598C26.09 57.3014 26.0442 57.3346 25.993 57.3573C25.9419 57.38 25.8866 57.3916 25.8306 57.3916ZM7.13204 57.1282C7.05931 57.1283 6.98793 57.1085 6.9256 57.071C6.86327 57.0335 6.81234 56.9797 6.77829 56.9155C6.37702 56.1585 6.00577 55.3761 5.67485 54.5899C5.63369 54.4921 5.63306 54.382 5.6731 54.2838C5.71313 54.1855 5.79055 54.1072 5.88833 54.0661C5.98611 54.0249 6.09623 54.0243 6.19448 54.0643C6.29272 54.1043 6.37104 54.1818 6.4122 54.2795C6.73393 55.0439 7.09491 55.8047 7.48513 56.5408C7.5174 56.6017 7.53337 56.67 7.5315 56.7389C7.52963 56.8078 7.50998 56.8751 7.47446 56.9342C7.43893 56.9933 7.38874 57.0422 7.32875 57.0762C7.26876 57.1102 7.201 57.1281 7.13204 57.1282ZM33.5766 56.8946C33.4886 56.8946 33.403 56.8655 33.3333 56.8118C32.7015 56.3366 31.9729 56.0063 31.199 55.8444C31.0953 55.822 31.0048 55.7593 30.9473 55.6702C30.8898 55.581 30.8701 55.4727 30.8925 55.369C30.9149 55.2653 30.9775 55.1747 31.0667 55.1173C31.1558 55.0598 31.2642 55.04 31.3679 55.0624C32.2781 55.2589 33.1261 55.6444 33.8204 56.1772C33.8867 56.2281 33.9354 56.2985 33.9597 56.3785C33.9839 56.4585 33.9825 56.5441 33.9556 56.6233C33.9287 56.7024 33.8776 56.7712 33.8097 56.8198C33.7417 56.8685 33.6602 56.8946 33.5766 56.8946ZM4.92079 51.6429C4.83382 51.6428 4.74924 51.6144 4.67986 51.562C4.61048 51.5095 4.56007 51.4359 4.53626 51.3523C4.30106 50.526 4.10284 49.6824 3.94708 48.8451C3.92773 48.7408 3.95057 48.6331 4.01061 48.5457C4.07064 48.4582 4.16294 48.3982 4.26721 48.3788C4.37148 48.3594 4.47919 48.3822 4.56665 48.4422C4.65411 48.5022 4.71416 48.5945 4.7336 48.6988C4.88482 49.5117 5.07729 50.3308 5.30569 51.1333C5.32258 51.1928 5.32544 51.2555 5.31405 51.3163C5.30265 51.3771 5.27731 51.4345 5.24001 51.4838C5.20272 51.5332 5.15448 51.5733 5.09909 51.6009C5.0437 51.6285 4.98267 51.6429 4.92079 51.6429ZM3.93243 45.8131C3.83044 45.813 3.73234 45.7739 3.65818 45.7039C3.58403 45.6339 3.53942 45.5382 3.53349 45.4363C3.50202 44.8968 3.48606 44.3479 3.48608 43.8048C3.48608 43.492 3.49138 43.1746 3.50181 42.8615C3.50543 42.7556 3.55098 42.6554 3.62844 42.583C3.7059 42.5106 3.80893 42.4719 3.91489 42.4754C4.02086 42.479 4.12108 42.5244 4.19355 42.6018C4.26602 42.6792 4.30479 42.7822 4.30136 42.8882C4.29122 43.1924 4.28608 43.5008 4.28608 43.8048C4.28606 44.3324 4.30156 44.8656 4.33212 45.3898C4.3383 45.4957 4.30215 45.5997 4.23164 45.679C4.16112 45.7582 4.06201 45.8062 3.9561 45.8124C3.94818 45.8128 3.94028 45.8131 3.93243 45.8131ZM4.21675 39.9059C4.15905 39.9059 4.10202 39.8934 4.04958 39.8694C3.99714 39.8453 3.95053 39.8102 3.91293 39.7664C3.87533 39.7227 3.84764 39.6713 3.83176 39.6158C3.81587 39.5603 3.81218 39.5021 3.82091 39.445C3.95072 38.6009 4.12003 37.7517 4.32413 36.9209C4.33654 36.8698 4.35892 36.8216 4.38999 36.7791C4.42105 36.7367 4.4602 36.7007 4.50517 36.6734C4.55015 36.6461 4.60007 36.6279 4.65208 36.6199C4.70409 36.6119 4.75717 36.6143 4.80828 36.6268C4.85938 36.6394 4.90751 36.6619 4.94989 36.6931C4.99228 36.7243 5.0281 36.7635 5.05529 36.8086C5.08249 36.8536 5.10053 36.9036 5.10837 36.9556C5.11622 37.0077 5.11372 37.0607 5.10103 37.1118C4.90251 37.9198 4.73786 38.7457 4.61161 39.5666C4.5971 39.661 4.54932 39.747 4.4769 39.8092C4.40449 39.8715 4.31222 39.9057 4.21675 39.9059ZM5.71165 34.1835C5.64703 34.1835 5.5834 34.1678 5.52617 34.1378C5.46895 34.1078 5.41984 34.0643 5.38304 34.0112C5.34624 33.9581 5.32285 33.8969 5.31486 33.8328C5.30687 33.7686 5.31452 33.7035 5.33716 33.643C5.63798 32.8406 5.9778 32.044 6.34722 31.2753C6.39335 31.18 6.4754 31.1069 6.57537 31.0719C6.67534 31.037 6.78508 31.0432 6.88052 31.0891C6.97596 31.1349 7.04932 31.2168 7.08451 31.3166C7.11971 31.4165 7.11387 31.5263 7.06827 31.6218C6.70913 32.3692 6.37874 33.1437 6.08626 33.9238C6.05767 34.0001 6.00648 34.0658 5.93955 34.1122C5.87261 34.1586 5.7931 34.1835 5.71165 34.1835ZM8.35489 28.8932C8.28315 28.8931 8.21275 28.8737 8.15106 28.8371C8.08938 28.8005 8.03868 28.7479 8.00428 28.6849C7.96988 28.622 7.95305 28.5509 7.95554 28.4792C7.95803 28.4075 7.97976 28.3378 8.01845 28.2774C8.48208 27.5536 8.98321 26.8465 9.50788 26.1758C9.57324 26.0922 9.66912 26.038 9.77442 26.0252C9.87973 26.0123 9.98583 26.0418 10.0694 26.1072C10.1529 26.1725 10.2071 26.2684 10.22 26.3737C10.2328 26.479 10.2034 26.5851 10.138 26.6687C9.62872 27.3198 9.14226 28.0062 8.69208 28.7089C8.65588 28.7655 8.60602 28.812 8.54708 28.8442C8.48815 28.8764 8.42205 28.8933 8.35489 28.8932Z" fill="#7FCBFF"/>
<path d="M63.6719 76.8373C63.6135 76.8373 63.5558 76.8246 63.5028 76.7999C63.4498 76.7752 63.4029 76.7392 63.3653 76.6945C63.3277 76.6498 63.3004 76.5973 63.2852 76.5409C63.27 76.4845 63.2674 76.4254 63.2775 76.3678C63.4333 75.503 63.691 74.6596 64.0454 73.8555C64.0878 73.7582 64.1671 73.6819 64.2659 73.6431C64.3647 73.6044 64.4748 73.6065 64.572 73.649C64.6692 73.6914 64.7456 73.7708 64.7843 73.8695C64.823 73.9683 64.8209 74.0784 64.7785 74.1756C64.4495 74.9217 64.2101 75.7042 64.0654 76.5067C64.0491 76.5992 64.0007 76.6831 63.9288 76.7435C63.8568 76.804 63.7659 76.8372 63.6719 76.8373ZM81.338 73.6348C81.3262 73.6348 81.3145 73.6343 81.3026 73.6332C80.3811 73.5441 79.5017 73.2044 78.7596 72.6509C78.6744 72.5876 78.6179 72.493 78.6025 72.3881C78.5871 72.2831 78.614 72.1763 78.6773 72.0912C78.7406 72.0061 78.8351 71.9496 78.9401 71.9341C79.0451 71.9187 79.1519 71.9456 79.237 72.0089C79.8599 72.4745 80.5984 72.7606 81.3724 72.8363C81.475 72.8453 81.5702 72.8935 81.6382 72.971C81.7061 73.0484 81.7416 73.1491 81.7371 73.252C81.7327 73.3549 81.6887 73.4522 81.6143 73.5235C81.54 73.5948 81.441 73.6347 81.338 73.6348ZM84.3195 72.3792C84.2452 72.3791 84.1724 72.3583 84.1092 72.3192C84.0461 72.2801 83.9951 72.2242 83.9619 72.1578C83.9287 72.0913 83.9147 72.0169 83.9214 71.9429C83.9282 71.869 83.9553 71.7983 83.9999 71.7389C84.4109 71.1916 84.6282 70.4901 84.6282 69.7101C84.6282 69.6736 84.6277 69.637 84.6268 69.6005C84.624 69.4944 84.6634 69.3916 84.7364 69.3146C84.8095 69.2377 84.9101 69.1929 85.0161 69.1901C85.1222 69.1873 85.225 69.2268 85.3019 69.2998C85.3789 69.3728 85.4237 69.4734 85.4265 69.5794C85.4276 69.623 85.4282 69.6665 85.4282 69.7101C85.4282 70.6647 85.1555 71.5324 84.6396 72.2193C84.6023 72.269 84.554 72.3094 84.4984 72.3371C84.4429 72.3649 84.3816 72.3793 84.3195 72.3792ZM66.1562 71.5243C66.0813 71.5242 66.0078 71.5031 65.9443 71.4634C65.8808 71.4237 65.8297 71.3669 65.7969 71.2996C65.7641 71.2322 65.7508 71.157 65.7586 71.0825C65.7665 71.008 65.7951 70.9372 65.8412 70.8781C66.3764 70.1957 66.9629 69.5551 67.5956 68.9619C67.6338 68.9259 67.6788 68.8978 67.728 68.8791C67.7771 68.8605 67.8294 68.8517 67.882 68.8533C67.9345 68.8549 67.9862 68.8668 68.0341 68.8884C68.0821 68.91 68.1253 68.9408 68.1613 68.9791C68.1973 69.0174 68.2254 69.0624 68.244 69.1115C68.2626 69.1607 68.2713 69.213 68.2697 69.2656C68.268 69.3181 68.2561 69.3698 68.2344 69.4177C68.2128 69.4656 68.182 69.5088 68.1436 69.5448C67.5407 70.1099 66.9818 70.7202 66.4717 71.3705C66.4343 71.4184 66.3864 71.4572 66.3318 71.4839C66.2771 71.5106 66.217 71.5244 66.1562 71.5243ZM77.3516 69.8872C77.2532 69.8871 77.1582 69.8507 77.085 69.7849C77.0117 69.7192 76.9652 69.6287 76.9545 69.5309C76.9346 69.3486 76.9246 69.1654 76.9246 68.982C76.9289 68.2505 77.0757 67.5268 77.3568 66.8514C77.3968 66.7532 77.4742 66.6749 77.572 66.6337C77.6698 66.5925 77.7799 66.5919 77.8782 66.6319C77.9764 66.672 78.0547 66.7494 78.0959 66.8472C78.1371 66.9449 78.1377 67.0551 78.0977 67.1533C77.8558 67.7329 77.729 68.354 77.7246 68.982C77.7246 69.1362 77.733 69.2903 77.7497 69.4435C77.7558 69.4995 77.7501 69.556 77.7329 69.6096C77.7156 69.6631 77.6873 69.7124 77.6497 69.7543C77.6122 69.7962 77.5662 69.8296 77.5148 69.8526C77.4635 69.8755 77.4078 69.8873 77.3516 69.8872ZM70.5366 67.5729C70.4502 67.573 70.3661 67.545 70.2969 67.4933C70.2277 67.4416 70.177 67.3689 70.1526 67.286C70.1281 67.2032 70.1312 67.1146 70.1613 67.0336C70.1913 66.9526 70.2468 66.8835 70.3195 66.8367C71.0463 66.3677 71.8039 65.9481 72.5871 65.5809C72.6832 65.536 72.7931 65.5312 72.8928 65.5674C72.9924 65.6035 73.0737 65.6778 73.1186 65.7738C73.1635 65.8699 73.1685 65.9798 73.1324 66.0795C73.0963 66.1792 73.0222 66.2605 72.9262 66.3055C72.1756 66.6574 71.4496 67.0595 70.753 67.509C70.6886 67.5507 70.6134 67.5729 70.5366 67.5729ZM83.8354 66.8884C83.7778 66.8885 83.7207 66.8761 83.6683 66.852C83.6159 66.828 83.5693 66.7928 83.5318 66.749C83.3947 66.5891 83.2452 66.4404 83.0846 66.3041C82.6444 65.9351 82.1496 65.6367 81.6177 65.4197C81.5692 65.3997 81.525 65.3703 81.4878 65.3332C81.4506 65.2961 81.4211 65.252 81.401 65.2035C81.3808 65.1549 81.3704 65.1029 81.3704 65.0504C81.3703 64.9978 81.3806 64.9458 81.4007 64.8972C81.4208 64.8487 81.4502 64.8046 81.4873 64.7674C81.5244 64.7302 81.5685 64.7007 81.6171 64.6806C81.6656 64.6604 81.7176 64.65 81.7702 64.65C81.8227 64.65 81.8747 64.6603 81.9233 64.6804C82.5317 64.929 83.0977 65.2707 83.6011 65.6932C83.7942 65.8569 83.9739 66.0357 84.1387 66.2278C84.1885 66.2858 84.2207 66.357 84.2313 66.4327C84.242 66.5085 84.2307 66.5857 84.1988 66.6553C84.1668 66.7248 84.1157 66.7838 84.0513 66.8251C83.9868 66.8664 83.9119 66.8884 83.8354 66.8884ZM75.9442 65.2175C75.8462 65.2174 75.7517 65.1814 75.6785 65.1162C75.6054 65.0511 75.5586 64.9613 75.5473 64.864C75.5359 64.7667 75.5606 64.6686 75.6167 64.5883C75.6728 64.508 75.7565 64.4511 75.8518 64.4283C76.0029 64.3923 76.1549 64.3586 76.3036 64.328C77.0097 64.1812 77.7278 64.0992 78.4488 64.083C78.5549 64.0808 78.6574 64.1209 78.7339 64.1944C78.8104 64.268 78.8546 64.3688 78.8567 64.4749C78.8588 64.581 78.8187 64.6835 78.7452 64.76C78.6717 64.8365 78.5708 64.8807 78.4647 64.8828C77.7925 64.8981 77.1231 64.9747 76.4648 65.1116C76.3241 65.1405 76.1803 65.1725 76.0373 65.2065C76.0068 65.2138 75.9755 65.2175 75.9442 65.2175ZM79.7702 64.7511C79.6865 64.7511 79.6049 64.7249 79.5369 64.6762C79.4689 64.6274 79.4179 64.5585 79.391 64.4793C79.3642 64.4 79.3629 64.3143 79.3874 64.2342C79.4118 64.1542 79.4608 64.0838 79.5273 64.033C79.8611 63.7778 80.2189 63.5557 80.5958 63.3698C81.0232 63.1616 81.4675 62.99 81.9238 62.8567C81.9742 62.8419 82.027 62.8371 82.0793 62.8426C82.1315 62.8482 82.1821 62.864 82.2283 62.8891C82.2744 62.9142 82.3151 62.9482 82.3482 62.989C82.3812 63.0299 82.4058 63.0769 82.4207 63.1272C82.4355 63.1776 82.4403 63.2305 82.4348 63.2827C82.4292 63.3349 82.4134 63.3856 82.3883 63.4317C82.3632 63.4778 82.3292 63.5186 82.2884 63.5516C82.2475 63.5846 82.2005 63.6092 82.1502 63.6241C81.7372 63.7445 81.3353 63.8996 80.9485 64.0878C80.6184 64.2507 80.3049 64.4454 80.0125 64.669C79.943 64.7223 79.8578 64.7511 79.7702 64.7511ZM85.3777 63.1421C85.2735 63.142 85.1735 63.1013 85.0989 63.0286C85.0243 62.9559 84.981 62.857 84.9782 62.7529C84.9754 62.6487 85.0133 62.5476 85.0839 62.471C85.1544 62.3944 85.2521 62.3484 85.3561 62.3427C85.8248 62.317 86.2981 62.3008 86.7559 62.2852L86.9547 62.2784C87.3318 62.2654 87.6215 62.2531 87.894 62.2385C87.9999 62.233 88.1036 62.2697 88.1825 62.3406C88.2613 62.4115 88.3088 62.5108 88.3144 62.6166C88.3201 62.7225 88.2834 62.8263 88.2126 62.9052C88.1418 62.9841 88.0425 63.0316 87.9367 63.0374C87.659 63.0522 87.3646 63.0647 86.9823 63.078L86.7831 63.0848C86.3295 63.1003 85.8603 63.1162 85.4 63.1415C85.3925 63.1419 85.3851 63.1421 85.3777 63.1421ZM91.2589 62.5531C91.1625 62.5531 91.0693 62.5182 90.9966 62.4548C90.9238 62.3915 90.8764 62.304 90.863 62.2085C90.8497 62.113 90.8713 62.0159 90.9238 61.935C90.9764 61.8541 91.0564 61.795 91.1492 61.7685C91.7593 61.6001 92.3443 61.3515 92.8889 61.029C93.0261 60.9449 93.1574 60.8514 93.2817 60.7492C93.3225 60.7162 93.3695 60.6915 93.4198 60.6766C93.4702 60.6617 93.523 60.6568 93.5753 60.6623C93.6275 60.6678 93.6781 60.6835 93.7243 60.7086C93.7705 60.7337 93.8112 60.7676 93.8443 60.8084C93.8774 60.8492 93.902 60.8961 93.917 60.9465C93.9319 60.9969 93.9367 61.0497 93.9312 61.1019C93.9257 61.1542 93.91 61.2048 93.885 61.251C93.8599 61.2971 93.826 61.3379 93.7852 61.371C93.6319 61.4966 93.4701 61.6115 93.301 61.7148C92.6963 62.0735 92.0467 62.3502 91.3691 62.5376C91.3333 62.5479 91.2962 62.5531 91.2589 62.5531ZM95.6512 58.8398C95.5813 58.8397 95.5127 58.8213 95.4521 58.7864C95.3915 58.7516 95.3411 58.7014 95.3059 58.641C95.2708 58.5806 95.2521 58.512 95.2516 58.4421C95.2512 58.3722 95.2691 58.3034 95.3036 58.2425C95.7071 57.5312 96.0303 56.7773 96.2673 55.9946C96.2979 55.8931 96.3677 55.8079 96.4612 55.7577C96.5547 55.7076 96.6642 55.6967 96.7658 55.7273C96.8673 55.758 96.9525 55.8277 97.0026 55.9212C97.0528 56.0147 97.0637 56.1242 97.0331 56.2258C96.7791 57.0653 96.4324 57.874 95.9996 58.637C95.9647 58.6986 95.9141 58.7499 95.8529 58.7855C95.7917 58.8212 95.7221 58.8399 95.6512 58.8398ZM97.1126 53.1706C97.008 53.1706 96.9075 53.1295 96.8328 53.0563C96.7581 52.9831 96.715 52.8835 96.7128 52.7789C96.6946 51.9628 96.5816 51.1516 96.3759 50.3617C96.3626 50.3108 96.3594 50.2577 96.3666 50.2056C96.3738 50.1535 96.3912 50.1033 96.4179 50.0579C96.4445 50.0125 96.4798 49.9728 96.5218 49.9411C96.5638 49.9094 96.6116 49.8863 96.6626 49.8731C96.7135 49.8599 96.7666 49.8569 96.8187 49.8643C96.8708 49.8716 96.9209 49.8892 96.9662 49.9159C97.0115 49.9427 97.0511 49.9781 97.0827 50.0202C97.1143 50.0622 97.1373 50.1101 97.1504 50.1611C97.3716 51.0112 97.4932 51.8841 97.5127 52.7623C97.5148 52.8684 97.4748 52.971 97.4014 53.0475C97.3279 53.1241 97.2271 53.1683 97.121 53.1705C97.1182 53.1706 97.1154 53.1706 97.1126 53.1706Z" fill="#7FCBFF"/>
<path d="M91.5641 48.165C96.1942 48.165 99.9477 44.4115 99.9477 39.7814C99.9477 35.1512 96.1942 31.3977 91.5641 31.3977C86.9339 31.3977 83.1804 35.1512 83.1804 39.7814C83.1804 44.4115 86.9339 48.165 91.5641 48.165Z" fill="#7FCBFF"/>
<path d="M94.7889 40.8602V38.9658C94.7889 38.1106 94.4491 37.2904 93.8444 36.6857C93.2397 36.0809 92.4195 35.7412 91.5643 35.7412H91.5641C91.1407 35.7412 90.7214 35.8246 90.3301 35.9867C89.9389 36.1487 89.5834 36.3862 89.284 36.6857C88.9846 36.9851 88.7471 37.3406 88.585 37.7318C88.4229 38.123 88.3395 38.5423 88.3395 38.9658V40.8602C88.3395 41.8905 88.0572 42.2841 87.5232 43.1652H95.6052C95.0712 42.2841 94.7889 41.8905 94.7889 40.8602Z" fill="white"/>
<path d="M91.5642 44.8093C91.2415 44.8093 90.9319 44.6811 90.7036 44.4529C90.4754 44.2246 90.3472 43.9151 90.3472 43.5923H92.7813C92.7813 43.9151 92.6531 44.2246 92.4248 44.4529C92.1966 44.6811 91.887 44.8093 91.5642 44.8093Z" fill="white"/>
<path d="M91.5641 34.7537C91.3688 34.7537 91.1778 34.8116 91.0154 34.9201C90.853 35.0286 90.7264 35.1829 90.6516 35.3634C90.5768 35.5438 90.5573 35.7424 90.5954 35.934C90.6335 36.1256 90.7276 36.3016 90.8657 36.4397C91.0038 36.5779 91.1798 36.6719 91.3714 36.71C91.563 36.7482 91.7616 36.7286 91.9421 36.6538C92.1225 36.5791 92.2768 36.4525 92.3853 36.2901C92.4938 36.1276 92.5518 35.9367 92.5518 35.7413C92.5518 35.4794 92.4477 35.2282 92.2625 35.0429C92.0773 34.8577 91.8261 34.7537 91.5641 34.7537ZM91.5641 36.3347C91.4467 36.3347 91.332 36.2999 91.2344 36.2347C91.1369 36.1695 91.0608 36.0768 91.0159 35.9684C90.971 35.86 90.9592 35.7407 90.9821 35.6256C91.005 35.5105 91.0615 35.4047 91.1445 35.3218C91.2275 35.2388 91.3332 35.1823 91.4483 35.1594C91.5634 35.1365 91.6828 35.1482 91.7912 35.1931C91.8996 35.238 91.9923 35.3141 92.0575 35.4117C92.1227 35.5093 92.1575 35.624 92.1575 35.7413C92.1575 35.8987 92.095 36.0496 91.9837 36.1609C91.8724 36.2722 91.7215 36.3347 91.5641 36.3347Z" fill="white"/>
<path d="M91.5643 50.0334C89.1924 50.0334 86.8939 49.211 85.0604 47.7063C83.227 46.2016 81.972 44.1077 81.5093 41.7814C81.0465 39.4551 81.4047 37.0403 82.5228 34.9485C83.6409 32.8567 85.4498 31.2173 87.6411 30.3097C89.8324 29.402 92.2706 29.2822 94.5404 29.9708C96.8101 30.6593 98.7709 32.1135 100.089 34.0856C101.406 36.0578 101.999 38.4258 101.767 40.7863C101.535 43.1467 100.491 45.3535 98.8136 47.0307C97.8638 47.9856 96.734 48.7427 95.4897 49.2582C94.2453 49.7736 92.9111 50.0371 91.5643 50.0334ZM91.5643 30.3292C89.3775 30.3292 87.2583 31.0875 85.5679 32.4747C83.8775 33.862 82.7204 35.7925 82.2937 37.9373C81.8671 40.0821 82.1973 42.3085 83.2282 44.2371C84.259 46.1656 85.9267 47.6771 87.9471 48.514C89.9674 49.3508 92.2154 49.4613 94.3081 48.8265C96.4007 48.1917 98.2085 46.8509 99.4234 45.0327C100.638 43.2144 101.185 41.0311 100.971 38.8549C100.757 36.6786 99.7942 34.644 98.2479 33.0977C97.3722 32.2172 96.3306 31.5192 95.1834 31.044C94.0361 30.5688 92.806 30.3258 91.5643 30.3292Z" fill="#7FCBFF"/>
<path d="M84.015 14.6373C83.9359 14.6373 83.8585 14.6138 83.7928 14.5699C83.727 14.5259 83.6757 14.4635 83.6454 14.3904C83.6152 14.3173 83.6072 14.2369 83.6227 14.1593C83.6381 14.0817 83.6762 14.0104 83.7321 13.9545L86.3534 11.3332C86.4284 11.2582 86.5302 11.2161 86.6362 11.2161C86.7423 11.2161 86.8441 11.2582 86.9191 11.3332C86.9941 11.4082 87.0362 11.51 87.0362 11.6161C87.0362 11.7222 86.9941 11.8239 86.9191 11.8989L84.2978 14.5202C84.2607 14.5573 84.2166 14.5868 84.1681 14.6069C84.1196 14.627 84.0675 14.6374 84.015 14.6373Z" fill="#177CC2"/>
<path d="M84.0151 14.7374C83.9162 14.7374 83.8196 14.7081 83.7374 14.6532C83.6551 14.5982 83.591 14.5201 83.5532 14.4288C83.5154 14.3374 83.5055 14.2369 83.5247 14.1399C83.544 14.0429 83.5917 13.9538 83.6616 13.8839L86.2828 11.2627C86.3766 11.1689 86.5038 11.1162 86.6364 11.1162C86.769 11.1162 86.8962 11.1689 86.9899 11.2627C87.0837 11.3564 87.1364 11.4836 87.1364 11.6162C87.1364 11.7488 87.0837 11.876 86.9899 11.9698L84.3687 14.591C84.3224 14.6376 84.2673 14.6745 84.2066 14.6996C84.1459 14.7248 84.0808 14.7376 84.0151 14.7374ZM86.6364 11.3164C86.597 11.3163 86.558 11.324 86.5216 11.3391C86.4852 11.3541 86.4521 11.3762 86.4242 11.4041L83.803 14.0253C83.7468 14.0816 83.7153 14.1579 83.7153 14.2374C83.7153 14.3169 83.7469 14.3932 83.8032 14.4494C83.8594 14.5056 83.9357 14.5373 84.0152 14.5373C84.0947 14.5373 84.171 14.5058 84.2273 14.4496L86.8485 11.8284C86.8905 11.7864 86.9191 11.733 86.9307 11.6748C86.9423 11.6166 86.9363 11.5563 86.9136 11.5015C86.8909 11.4466 86.8525 11.3998 86.8031 11.3669C86.7538 11.3339 86.6958 11.3163 86.6364 11.3164Z" fill="#177CC2"/>
<path d="M89.6202 18.3884C89.6002 18.3884 89.5802 18.3869 89.5603 18.3839L85.198 17.7286C85.0931 17.7128 84.9989 17.656 84.9359 17.5707C84.8729 17.4854 84.8464 17.3786 84.8621 17.2737C84.8779 17.1688 84.9346 17.0745 85.0199 17.0115C85.1051 16.9484 85.2119 16.9218 85.3168 16.9375L89.6792 17.5928C89.7789 17.6078 89.8693 17.66 89.9323 17.7388C89.9952 17.8176 90.0261 17.9173 90.0186 18.0179C90.0112 18.1186 89.966 18.2126 89.8921 18.2813C89.8182 18.35 89.7211 18.3883 89.6202 18.3884Z" fill="#177CC2"/>
<path d="M89.6202 18.4885C89.5952 18.4885 89.5702 18.4866 89.5454 18.4829L85.1831 17.8276C85.118 17.818 85.0555 17.7956 84.9992 17.7618C84.9428 17.728 84.8936 17.6834 84.8545 17.6305C84.8154 17.5777 84.7871 17.5177 84.7712 17.4539C84.7553 17.3901 84.7521 17.3238 84.7619 17.2588C84.7717 17.1937 84.7941 17.1313 84.8281 17.075C84.862 17.0187 84.9067 16.9696 84.9596 16.9306C85.0125 16.8916 85.0726 16.8634 85.1365 16.8476C85.2003 16.8318 85.2666 16.8288 85.3316 16.8387L89.6939 17.494C89.8187 17.5128 89.9317 17.5779 90.0104 17.6765C90.0891 17.775 90.1276 17.8997 90.1183 18.0255C90.109 18.1513 90.0525 18.2689 89.9601 18.3547C89.8677 18.4406 89.7463 18.4884 89.6202 18.4885ZM85.2572 17.0331C85.1815 17.0332 85.1087 17.0618 85.0532 17.1133C84.9978 17.1648 84.9638 17.2354 84.9582 17.3109C84.9526 17.3863 84.9757 17.4612 85.0229 17.5203C85.0701 17.5795 85.1379 17.6186 85.2128 17.6298L89.5751 18.2851C89.6141 18.2911 89.6538 18.2892 89.6921 18.2797C89.7303 18.2702 89.7663 18.2533 89.798 18.2299C89.8297 18.2065 89.8565 18.177 89.8768 18.1432C89.8971 18.1095 89.9105 18.072 89.9163 18.033C89.928 17.9544 89.9081 17.8743 89.8608 17.8103C89.8136 17.7463 89.7429 17.7037 89.6642 17.6918L85.3019 17.0365C85.2871 17.0343 85.2722 17.0331 85.2572 17.0331Z" fill="#177CC2"/>
<path d="M80.9188 13.3953C80.8231 13.3951 80.7306 13.3607 80.6581 13.2982C80.5856 13.2357 80.538 13.1493 80.5238 13.0546L79.8685 8.69231C79.8606 8.64036 79.8632 8.58739 79.8758 8.53641C79.8885 8.48544 79.9111 8.43746 79.9423 8.39521C79.9735 8.35297 80.0127 8.31728 80.0577 8.29019C80.1027 8.26311 80.1526 8.24515 80.2046 8.23735C80.2565 8.22954 80.3095 8.23205 80.3605 8.24472C80.4114 8.25739 80.4594 8.27998 80.5017 8.31119C80.5439 8.3424 80.5796 8.38163 80.6067 8.42663C80.6338 8.47164 80.6517 8.52154 80.6595 8.57348L81.3149 12.9358C81.3234 12.9928 81.3195 13.0509 81.3035 13.1062C81.2875 13.1615 81.2597 13.2127 81.2222 13.2563C81.1846 13.2999 81.138 13.3349 81.0856 13.3589C81.0333 13.3829 80.9764 13.3953 80.9188 13.3953Z" fill="#177CC2"/>
<path d="M80.9187 13.4952C80.7992 13.4945 80.6839 13.4512 80.5934 13.3732C80.5028 13.2952 80.4431 13.1875 80.4248 13.0694L79.7695 8.70708C79.7498 8.57594 79.783 8.44236 79.8618 8.3357C79.9406 8.22904 80.0585 8.15806 80.1897 8.13836C80.3208 8.11866 80.4544 8.15187 80.561 8.23067C80.6677 8.30947 80.7387 8.42741 80.7584 8.55855L81.4137 12.9209C81.4334 13.052 81.4002 13.1856 81.3214 13.2922C81.2426 13.3989 81.1246 13.4699 80.9935 13.4896C80.9687 13.4933 80.9437 13.4952 80.9187 13.4952ZM80.2645 8.33275C80.2494 8.33275 80.2343 8.33388 80.2194 8.33612C80.1804 8.34197 80.143 8.35544 80.1092 8.37575C80.0755 8.39607 80.0461 8.42283 80.0226 8.45452C79.9992 8.48621 79.9823 8.52219 79.9728 8.56043C79.9633 8.59866 79.9614 8.6384 79.9673 8.67736L80.6226 13.0397C80.6284 13.0787 80.6418 13.1161 80.6621 13.1499C80.6824 13.1837 80.7092 13.2131 80.7409 13.2365C80.7725 13.26 80.8085 13.2769 80.8468 13.2864C80.885 13.2959 80.9248 13.2977 80.9638 13.2918C81.0027 13.286 81.0402 13.2725 81.0739 13.2522C81.1077 13.2319 81.1371 13.2051 81.1605 13.1734C81.1839 13.1417 81.2009 13.1057 81.2104 13.0675C81.2199 13.0293 81.2217 12.9895 81.2159 12.9506L80.5606 8.58825C80.5499 8.51732 80.5141 8.45256 80.4598 8.4057C80.4055 8.35883 80.3362 8.33295 80.2645 8.33275Z" fill="#177CC2"/>
</svg>
